<?xml version="1.0" standalone="no"?>
<!DOCTYPE svg PUBLIC "-//W3C//DTD SVG 1.1//EN" "http://www.w3.org/Graphics/SVG/1.1/DTD/svg11.dtd" >
<svg>
<metadata>
Created by FontForge 20110222 at Mon Mar  7 04:41:46 2011
 By www-data
HamburgSymbols is Public Domain (2005). Characters were generated in
CorelDRAW(c) with TrueType export. Metrics, mapping, and final output in
High-Logic's(c) Font Creator Ver. 5.0. The readme file "HamburgSymbols.pdf"
contains the meaning and intended use of these symbols.
</metadata>
<defs>
<font id="HamburgSymbols" horiz-adv-x="1822" >
  <font-face 
    font-family="HamburgSymbols"
    font-weight="400"
    font-stretch="normal"
    units-per-em="2048"
    panose-1="1 0 6 4 6 3 2 2 2 4"
    ascent="1638"
    descent="-410"
    x-height="1214"
    cap-height="1615"
    bbox="0 -416 1794 1669"
    underline-thickness="150"
    underline-position="-125"
    unicode-range="U+0020-2122"
  />
    <missing-glyph />
    <glyph glyph-name="space" unicode=" " horiz-adv-x="455" 
 />
    <glyph glyph-name="exclam" unicode="!" horiz-adv-x="524" 
d="M340 1564l-18 -1182h-124l-14 1182h156zM169 191h185v-191h-185v191z" />
    <glyph glyph-name="quotedbl" unicode="&#x22;" horiz-adv-x="800" 
d="M179 1653v-546h-150v546h150zM548 1653v-546h-150v546h150z" />
    <glyph glyph-name="numbersign" unicode="#" horiz-adv-x="1200" 
d="M217 691l477 -688v688h117v-966h-117l-477 680v-680h-117v966h117z" />
    <glyph glyph-name="dollar" unicode="$" horiz-adv-x="1200" 
d="M274 577v-298h199q66 0 114 40t48 108q0 67 -45 108.5t-117 41.5h-199zM535 165l277 -440h-191l-241 440h-106v-440h-164l-1 969h413q121 0 205 -77t84 -187q0 -116 -95 -195q-83 -70 -181 -70z" />
    <glyph glyph-name="percent" unicode="%" horiz-adv-x="1200" 
d="M456 -275q-113 0 -208 53q-120 67 -135 171h168q35 -105 175 -105q74 0 127 41t53 99q0 76 -83 120q-41 20 -91 31l-96 24q-88 21 -140 56q-126 78 -126 212q0 114 104.5 196.5t251.5 82.5q109 0 199 -48q120 -62 141 -178l-166 1q-35 106 -174 106q-74 0 -127.5 -42
t-53.5 -100q0 -51 46 -90q34 -30 80 -43l90 -21q48 -10 98.5 -26t96.5 -50q125 -93 125 -212q0 -126 -123 -210q-101 -68 -232 -68z" />
    <glyph glyph-name="ampersand" unicode="&#x26;" horiz-adv-x="1200" 
d="M100 691h712v-117h-269v-849h-174v849h-269v117z" />
    <glyph glyph-name="quotesingle" unicode="'" horiz-adv-x="800" 
d="M368 1661v-545h-150v545h150z" />
    <glyph glyph-name="parenleft" unicode="(" horiz-adv-x="800" 
d="M446 -103q-113 179 -175 379q-74 236 -74 492q0 245 71 477q66 226 196 423h138q-131 -198 -192 -451q-52 -217 -52 -449q0 -109 10 -211.5t31 -198.5q54 -254 185 -461h-138z" />
    <glyph glyph-name="parenright" unicode=")" horiz-adv-x="800" 
d="M353 -103h-138q128 205 185 461q42 195 42 410q0 235 -52 449q-62 249 -193 451h139q125 -191 196 -423q34 -118 52 -238t18 -239q0 -260 -74 -492q-63 -203 -175 -379z" />
    <glyph glyph-name="asterisk" unicode="*" horiz-adv-x="1200" 
d="M267 575v-739h34q143 0 242 109.5t99 261.5q0 163 -104 271q-95 98 -233 98zM320 691q244 0 383 -169q52 -65 78 -142t26 -171q0 -209 -125 -340q-135 -144 -362 -144h-220v966h220z" />
    <glyph glyph-name="plus" unicode="+" horiz-adv-x="1562" 
d="M201 860h502v502h157v-502h501v-157h-501v-501h-157v501h-502v157z" />
    <glyph glyph-name="comma" unicode="," horiz-adv-x="524" 
d="M198 219h220v-219l-182 -361h-136l181 361h-83v219z" />
    <glyph glyph-name="hyphen" unicode="-" horiz-adv-x="1562" 
d="M269 861h1024v-157h-1024v157z" />
    <glyph glyph-name="period" unicode="." horiz-adv-x="524" 
d="M200 219h220v-219h-220v219z" />
    <glyph glyph-name="slash" unicode="/" horiz-adv-x="800" 
d="M107 -103l421 1771h164l-415 -1771h-170z" />
    <glyph glyph-name="zero" unicode="0" horiz-adv-x="1175" 
d="M587 1487q244 0 364 -204q60 -104 82 -242q11 -64 17 -134.5t6 -140.5q0 -158 -19 -307.5t-84.5 -260.5t-147.5 -154t-220 -43t-244 75.5t-154 196.5q-41 102 -55 236t-14 250q0 131 18 261.5t69.5 233t152 168t229.5 65.5zM586 1333q-90 0 -144 -51t-85 -132.5
t-43 -185.5q-5 -46 -8 -100t-3 -108q0 -79 1.5 -110.5t6.5 -90.5q0 -46 10 -96q7 -36 24 -88q63 -216 243 -216q95 0 149.5 54.5t85.5 142.5q18 54 28.5 99t10.5 95q0 45 2 81q7 126 7 135q0 104 -10 196.5t-38 171.5q-69 203 -237 203z" />
    <glyph glyph-name="one" unicode="1" horiz-adv-x="1175" 
d="M273 138h232v1109q-44 -49 -102.5 -85.5t-129.5 -56.5v167q75 21 144 84q46 45 88 130h165v-1348h232v-138h-629v138z" />
    <glyph glyph-name="two" unicode="2" horiz-adv-x="1175" 
d="M361 166l694 -1v-165h-936q0 72 34 150q31 72 87.5 149.5t126 143.5t135.5 120l120 94q63 49 128 114q61 61 100 122.5t39 141.5t-20.5 135.5t-64 91.5t-92.5 53.5t-107 17.5q-60 0 -121.5 -19t-103.5 -62q-94 -94 -94 -267h-167q0 258 162 393q65 53 150.5 77.5
t172.5 24.5q89 0 163.5 -24t135.5 -71q150 -118 150 -335q0 -98 -36 -187t-106 -169q-50 -56 -113 -110l-143 -115q-82 -64 -162 -132.5t-132 -170.5z" />
    <glyph glyph-name="three" unicode="3" horiz-adv-x="1175" 
d="M655 864q39 13 74 29t65 44q64 61 64 154q0 109 -96 180q-75 54 -168 54q-103 0 -174 -48q-89 -57 -89 -165h-177q0 162 138 273q123 99 302 99q155 0 268 -88q154 -121 154 -306q0 -192 -163 -310q89 -56 145.5 -149.5t56.5 -202.5q0 -201 -171 -330q-131 -98 -297 -98
q-177 0 -309 108q-77 62 -117.5 138t-40.5 169h187q0 -53 19.5 -97.5t56.5 -79.5q81 -81 204 -81q129 0 220.5 79t91.5 191q0 107 -86 186q-50 45 -122 68q-47 14 -94 14q-53 0 -104 -15l-47 186q38 -15 115 -15q56 0 94 13z" />
    <glyph glyph-name="four" unicode="4" horiz-adv-x="1175" 
d="M915 518h139v-160h-139v-358h-157v358h-638v160l638 968h156zM758 518v696l-458 -696h458z" />
    <glyph glyph-name="five" unicode="5" horiz-adv-x="1175" 
d="M989 1482v-166h-615v-386q52 28 126 50q30 9 63.5 12.5t73.5 3.5q69 -6 133.5 -37.5t115.5 -70.5q70 -56 119 -166.5t49 -229.5q0 -195 -122 -335q-142 -157 -349 -157q-113 0 -210 59q-74 46 -134 124q-44 56 -79 142q-19 49 -29 86.5t-10 72.5h163q8 -53 29 -98.5
t46 -85.5q20 -33 42.5 -58.5t47.5 -42.5q60 -41 138 -41q127 0 214 97q42 48 64.5 109.5t22.5 134.5q0 111 -49 196q-32 54 -86 90q-37 24 -76.5 37.5t-80.5 13.5q-67 0 -128 -25.5t-94 -77.5h-165v749h780z" />
    <glyph glyph-name="six" unicode="6" horiz-adv-x="1175" 
d="M605 792q-125 0 -211 -98q-81 -93 -81 -219q0 -118 72 -208q87 -110 220 -110q127 0 216 105q76 91 76 213q0 135 -91 230q-84 87 -201 87zM618 1485q142 0 245.5 -84.5t168.5 -251.5h-184q-42 90 -94 133.5t-145 43.5q-155 0 -265 -189q-49 -88 -70.5 -197.5
t-21.5 -247.5q51 116 153.5 190.5t225.5 74.5q163 0 285 -125q139 -143 139 -359q0 -103 -31 -187t-92 -151q-126 -135 -329 -135q-138 0 -235.5 74.5t-159.5 188.5q-56 104 -72 228t-16 257q0 67 6 130.5t20 131.5q27 132 93 232t164 171.5t215 71.5z" />
    <glyph glyph-name="seven" unicode="7" horiz-adv-x="1175" 
d="M120 1482h934l1 -163q-65 -56 -118.5 -135t-101.5 -177q-32 -66 -63 -146.5t-62 -177.5q-27 -85 -48.5 -167.5t-43.5 -185.5q-36 -163 -63 -330h-162q19 131 52 291q40 203 96 388.5t127 340.5q75 167 169 296h-717v166z" />
    <glyph glyph-name="eight" unicode="8" horiz-adv-x="1175" 
d="M588 852q107 0 192.5 66.5t85.5 173.5q0 108 -92 185q-79 64 -186 64q-111 0 -192 -69q-86 -74 -86 -180q0 -103 82 -171.5t196 -68.5zM854 777q90 -57 145.5 -150t55.5 -201q0 -177 -137 -301.5t-330 -124.5q-207 0 -346 140q-122 122 -122 286q0 108 54.5 200
t147.5 151q-178 118 -178 315q0 185 162 304q123 90 282 90q183 0 313 -115.5t130 -278.5q0 -196 -177 -315zM588 696q-122 0 -207.5 -79.5t-85.5 -190.5t85.5 -190t207.5 -79q121 0 207 78.5t86 190.5q0 116 -97 200q-85 70 -196 70z" />
    <glyph glyph-name="nine" unicode="9" horiz-adv-x="1175" 
d="M579 1327q-130 0 -221 -104q-78 -93 -78 -219q0 -122 78 -212q88 -100 215 -100q117 0 205 91q45 46 67.5 101t22.5 123q0 62 -17.5 114t-56.5 101q-44 51 -97.5 78t-117.5 27zM276 94q-100 87 -157 250h183q17 -40 35.5 -71t41.5 -54q30 -30 70.5 -45t96.5 -15
q153 0 264 179.5t111 439.5q-55 -111 -155.5 -180.5t-221.5 -69.5q-174 0 -298 136q-127 139 -127 343q0 217 138 355q125 122 316 122q176 0 297 -119q65 -64 113 -159q43 -89 57.5 -192t14.5 -202q0 -153 -27.5 -307t-114.5 -276q-81 -113 -174.5 -171t-199.5 -58
q-153 0 -263 94z" />
    <glyph glyph-name="colon" unicode=":" 
d="M179 161h310v1242h-311v161h475v-1564h-474v161zM1642 161v-161h-474v1564h475v-161h-311v-1242h310zM907 929q57 0 99 -38q48 -45 48 -109t-48 -108q-42 -39 -99 -39q-66 0 -106.5 45.5t-40.5 101.5q0 58 43 104q45 43 104 43z" />
    <glyph glyph-name="semicolon" unicode=";" horiz-adv-x="800" 
d="M290 1668q120 0 205 -85t85 -205q0 -121 -85 -205.5t-205 -84.5q-128 0 -214 95q-76 82 -76 195q0 110 76 195q86 95 214 95zM290 1531q-63 0 -108 -45t-45 -108q0 -62 45 -108t108 -46q62 0 108 45t46 109q0 71 -56 118q-43 35 -98 35z" />
    <glyph glyph-name="less" unicode="&#x3c;" 
d="M358 1335q114 114 258 171t295 57q150 0 293.5 -57t258.5 -171t172 -258.5t57 -294.5q0 -149 -57 -294t-170.5 -258.5t-258.5 -171.5t-295 -58q-149 0 -294.5 57t-259 171.5t-170.5 258.5t-57 295q0 150 57 293.5t171 259.5zM424 418l364 364l-364 364
q-120 -162 -120 -364q0 -203 120 -364zM547 1269l364 -364l364 364q-161 120 -364 120t-364 -120zM1398 1146l-364 -364l364 -364q120 159 120 364q0 200 -120 364zM1275 295l-364 364l-364 -364q160 -121 364 -121t364 121z" />
    <glyph glyph-name="equal" unicode="=" horiz-adv-x="1562" 
d="M313 605h935v-165h-935v165zM313 1095h935v-165h-935v165z" />
    <glyph glyph-name="greater" unicode="&#x3e;" horiz-adv-x="1361" 
d="M791 22l-24 56q-36 91 -65 193l-112 397l-34 -1q-39 0 -68.5 5.5t-56.5 15.5v-502q0 -45 33 -75q26 -24 85 -24h39v-87h-458v87q48 0 81 23q46 34 46 76v1098q0 48 -47 77q-33 21 -80 21v91h457q86 0 169.5 -46t128.5 -111q71 -106 71 -225q0 -123 -69 -236
q-64 -96 -166 -155l98 -361l25 -89q14 -44 31 -86l160 267h167l-252 -422q69 -108 139 -108q72 0 135 89h7v-210q-66 -26 -124 -26q-10 0 -18 0.5t-33 4.5q-102 21 -181 124l-179 -299h-167zM431 1372v-568q11 -1 21.5 -1.5t21.5 -0.5q37 0 65 7q81 15 149 83q91 91 91 217
q0 135 -119 208q-90 55 -229 55z" />
    <glyph glyph-name="question" unicode="?" horiz-adv-x="1277" 
d="M560 0v168h181v-168h-181zM651 1555q190 0 321 -144q125 -139 125 -330q0 -86 -21 -149.5t-85 -132.5q-57 -61 -104 -93q-53 -36 -84 -61q-36 -30 -57.5 -65t-21.5 -96v-112h-164v111q0 82 22.5 142t130.5 143q107 75 150 129q69 84 69 184q0 125 -77 215q-81 96 -204 96
q-108 0 -194 -65q-113 -86 -113 -216h-165q0 90 40 172q37 76 108 143q137 129 324 129z" />
    <glyph glyph-name="at" unicode="@" horiz-adv-x="1175" 
d="M586 1487q116 0 176 -26.5t124 -90.5l75 120l135 -87l-115 -182q45 -105 60 -219t15 -240q0 -63 -4 -134.5t-13 -151.5q-16 -159 -88 -281q-51 -87 -151.5 -141t-211.5 -54t-176.5 25.5t-125.5 88.5l-73 -116l-134 85l112 180q-48 114 -60 240.5t-12 254.5q0 125 18 259
t69 236.5t157 168t223 65.5zM852 1016l-466 -743q35 -61 75 -92q36 -26 128 -26q88 0 146 54t89 142q18 54 28.5 99t10.5 95q0 45 2 81q7 126 7 135q0 144 -20 255zM323 472l464 740q-34 57 -78 88.5t-122 31.5q-161 0 -230 -184q-30 -81 -42 -185q-5 -46 -8 -100t-3 -108
l3 -145q0 -47 6 -88q1 -4 10 -50z" />
    <glyph glyph-name="A" unicode="A" 
d="M999 1135v-820q63 9 119.5 31.5t107.5 56.5l13 -9l-328 -623l-328 624l13 8q45 -31 100 -53q31 -12 65 -21.5t64 -13.5v818q0 110 -87 190q-75 66 -174 66q-110 0 -191 -84q-33 -38 -50 -80.5t-17 -92.5q0 -118 91 -196l-102 -143q-165 129 -165 339q0 165 113 290
q130 142 321 142q106 0 193 -42.5t154 -130.5q67 90 153 131.5t194 41.5q180 0 307 -127t127 -305q0 -208 -165 -339l-102 143q91 77 91 196q0 120 -94 198q-73 59 -164 59q-102 0 -178 -70q-38 -35 -59.5 -84t-21.5 -100z" />
    <glyph glyph-name="B" unicode="B" 
d="M1216 111h-226v-214h-160v214h-226v143h226v521l-299 -298l-101 101l307 307h-434v144h434l-307 307l101 101l307 -307v434h144v-434l307 307l101 -101l-307 -307h435v-144h-435l307 -307l-101 -101l-299 298v-521h226v-143z" />
    <glyph glyph-name="C" unicode="C" 
d="M729 619h148q85 0 157 30.5t135 91.5q120 116 120 278q0 165 -126 282.5t-301 117.5q-143 0 -256 -80t-153 -202l-92 -36q36 223 224 359q142 104 322 104q210 0 371 -144q182 -165 182 -409q0 -231 -167 -395q-81 -80 -180.5 -119t-215.5 -39v-173h217v-144h-217v-244
h-168v244h-215v144h215v334z" />
    <glyph glyph-name="D" unicode="D" 
d="M1337 835h-254v-413q122 19 224 99l169 -70q-161 -167 -393 -197v-357h-168v358q-240 31 -405 216.5t-165 435.5q0 270 193 463.5t465 193.5q278 0 473 -202l-169 -70q-136 106 -304 106q-204 0 -348 -144.5t-144 -346.5q0 -180 115 -315.5t289 -168.5v412h-255v142h255
v235h168v-235h254v-142z" />
    <glyph glyph-name="E" unicode="E" 
d="M565 263h263v230q-154 30 -252 149q-51 61 -75 122q-27 69 -27 156q0 194 148 326q-69 58 -106 140q-42 87 -42 177h165q0 -68 31 -127q29 -67 88 -108q72 27 154 27q81 0 153 -27q53 38 88 108q15 30 22.5 60.5t7.5 66.5h165q0 -90 -40 -173.5t-107 -143.5
q147 -131 147 -326q0 -177 -126 -305q-94 -95 -227 -122v-230h262v-145h-262v-221h-167v221h-263v145zM911 1192q-117 0 -198 -85q-76 -81 -76 -188q0 -104 72 -184q80 -89 202 -89q121 0 201 89q71 77 71 184q0 108 -71 183q-81 90 -201 90z" />
    <glyph glyph-name="F" unicode="F" 
d="M995 1124v-640l304 237l107 -138l-354 -275l354 -275l-107 -136l-388 301l-389 -301l-107 136l354 275l-354 275l107 138l305 -237v640q-35 -5 -71 -14.5t-69 -23.5q-67 -31 -120 -72l344 654l343 -654q-31 24 -63 42t-70 34q-58 23 -126 34z" />
    <glyph glyph-name="G" unicode="G" 
d="M1247 717h-254v-717h-168v717h-254v141h254v310h168v-310h254v-141zM683 1564h452q155 0 261 -59.5t171.5 -155t94.5 -212t29 -268.5h-175q0 112 -20 201q-11 50 -26 89.5t-40 75.5q-105 155 -337 155h-367q-242 0 -347 -187q-39 -71 -55 -152.5t-16 -181.5h-178
q0 140 28 253q14 57 37 109.5t53 99.5q68 104 177.5 168.5t257.5 64.5z" />
    <glyph glyph-name="H" unicode="H" 
d="M504 658h471v366q-99 53 -183 147h175q35 -23 62.5 -38.5t56.5 -26.5q67 -26 144 -26q87 0 160 32q25 11 51 26q17 10 52 33h174q-82 -91 -183 -146v-367h207v-145h-207v-366q99 -54 183 -147h-174q-32 21 -58 37q-33 20 -59 31q-68 28 -146 28q-77 0 -148 -30
q-29 -12 -58 -29q-8 -4 -57 -37h-175q83 93 183 148v365h-845q52 26 95.5 66t82.5 88q73 91 125 214q41 102 59 166q23 83 23 153q0 79 -10 137t-36 105q-82 137 -238 137q-26 0 -55 -6l-46 -12l54 35l50 26q49 22 93.5 33.5t86.5 11.5q99 0 169 -66.5t102 -161.5
q24 -78 24 -170q0 -72 -15 -153q-26 -146 -98 -296q-44 -93 -92 -162zM1366 195v318h-273v-318q66 18 137 18q68 0 136 -18zM1366 658v319q-66 -18 -136 -18q-40 0 -69.5 4t-67.5 15v-320h273z" />
    <glyph glyph-name="I" unicode="I" 
d="M597 1246h232v192h164v-192h232q0 44 5 83.5t23 117.5t56 168h192q-28 -58 -47 -107.5t-32 -104.5t-19 -113.5t-6 -118.5q0 -117 25.5 -228t78.5 -215h-193q-20 49 -33 86.5t-24 87.5t-18.5 99.5t-7.5 95.5h-232v-410q115 -25 200 -109q117 -117 117 -282
q0 -160 -110 -276q-121 -123 -289 -123q-180 0 -302 137q-97 112 -97 262q0 165 117 282q82 82 200 109v410h-232q0 -47 -8 -95t-21.5 -103.5t-24 -89.5t-29.5 -81h-193q23 47 42.5 100.5t32.5 107.5q29 113 29 235q0 71 -5 122.5t-21 113.5q-25 103 -78 208h192
q15 -37 30 -82t24 -84q15 -62 22.5 -108.5t7.5 -94.5zM911 531q-98 0 -166.5 -69t-68.5 -166q0 -89 57 -154q70 -82 178 -82q98 0 170 73q65 68 65 163t-68.5 165t-166.5 70z" />
    <glyph glyph-name="J" unicode="J" 
d="M952 1219v-244h222q-12 94 -73 161t-149 83zM1174 893h-222v-245q86 15 147 82t75 163zM870 648v245h-222q11 -94 72 -162t150 -83zM648 975h222v244q-91 -15 -155 -91q-53 -62 -67 -153zM829 -103v617q-159 31 -257 161q-88 115 -88 258q0 92 39 178q36 79 105 142
q-144 126 -144 311h161q0 -146 116 -231q69 27 150 27q78 0 150 -27q57 42 86.5 99.5t29.5 131.5h161q0 -92 -36.5 -170t-107.5 -141q66 -62 105 -144t39 -176q0 -152 -98 -270.5t-247 -148.5v-617h-164z" />
    <glyph glyph-name="K" unicode="K" 
d="M995 1124v-407l474 -820h-1117l475 820v407q-65 -9 -133 -35t-127 -75l344 654l344 -654q-59 47 -136 78q-30 11 -58.5 18.5t-65.5 13.5zM916 525l-276 -471h550z" />
    <glyph glyph-name="L" unicode="L" 
d="M221 1110v209q145 -112 320 -172q79 -27 149 -42.5t139 -15.5v254h164v-254q71 0 138 14.5t150 43.5q174 59 320 173v-210q-137 -83 -287 -131q-91 -29 -167 -44.5t-154 -15.5v-224q78 0 153.5 -13t166.5 -40q156 -48 288 -126v-205q-147 105 -321 162q-80 25 -142 37
q-75 15 -145 15v-305h-164v302q-152 -15 -289 -66q-89 -33 -167.5 -77.5t-151.5 -104.5v213q128 83 286 139q87 30 159 46q89 20 163 20v227q-77 0 -154.5 15t-166.5 44q-153 47 -287 132z" />
    <glyph glyph-name="M" unicode="M" 
d="M677 599h152v1069h164v-335l335 335l115 -116l-300 -300l301 -301l-116 -116l-335 335v-571h151q128 0 221 -120q78 -102 78 -230q0 -132 -70 -232q-84 -120 -229 -120h-467q-150 0 -237 133q-62 97 -62 219q0 108 60 204q90 146 239 146zM709 435q-68 0 -117.5 -45
t-49.5 -106v-73q0 -61 49.5 -106t117.5 -45h403q70 0 118.5 45t48.5 106v73q0 59 -49 107q-49 44 -118 44h-403z" />
    <glyph glyph-name="N" unicode="N" 
d="M416 1030h224l271 -301l261 301h233l-494 -547zM130 517h446l335 -375l328 375h452v-174h-375l-406 -446l-404 446h-376v174zM911 1564l135 -226l-135 -151v-232l-136 232l136 141v236z" />
    <glyph glyph-name="O" unicode="O" 
d="M334 1595l209 -395q-22 26 -53 50q-31 21 -72 36v-141q0 -144 74 -249q84 -122 208 -122h133v514q-42 -12 -75.5 -34.5t-56.5 -53.5l209 395l208 -395q-20 25 -52 50q-30 21 -70 35v-511h125q115 0 198 108.5t83 262.5v141q-38 -13 -67 -32q-35 -23 -58 -54l209 395
l209 -395q-22 26 -53 50q-30 21 -70 35v-133q0 -219 -125 -378q-135 -170 -328 -170h-123v-227h244v-139h-244v-238h-163v238h-253v139h253v227h-132q-186 0 -319 160.5t-133 387.5v134q-38 -13 -66 -32q-36 -24 -57 -54z" />
    <glyph glyph-name="P" unicode="P" 
d="M573 308h256v256q-260 27 -455 211q-110 102 -173 227q-70 139 -70 283l166 107l-2 -52q0 -127 46.5 -235t139.5 -201q90 -90 197 -135.5t235 -45.5q119 0 226.5 43t197.5 125q94 85 143.5 199t49.5 250l-2 52l162 -104q-1 -163 -66 -281q-61 -125 -175 -232
q-193 -182 -456 -211v-256h257v-142h-257v-269h-164v269h-256v142zM912 1668q135 0 232.5 -97t97.5 -234q0 -133 -91 -228q-100 -103 -239 -103q-138 0 -235 97.5t-97 233.5q0 133 92 228q98 103 240 103zM912 1525q-81 0 -134.5 -57t-53.5 -131q0 -78 55 -133t133 -55
q80 0 135 59q52 54 52 129q0 77 -55.5 132.5t-131.5 55.5z" />
    <glyph glyph-name="Q" unicode="Q" 
d="M911 1563q151 0 286 -54.5t239 -148.5q117 -108 186.5 -258.5t69.5 -319.5q0 -172 -69.5 -321t-186.5 -257q-105 -94 -240 -149t-285 -55q-162 0 -304 61t-248.5 167.5t-167.5 248.5q-29 69 -45 147t-16 158q0 161 54 294q51 124 149 231q107 117 257.5 186.5t320.5 69.5
zM911 1391q-252 0 -430.5 -178.5t-178.5 -430.5t179 -430.5t430 -178.5q252 0 430.5 178.5t178.5 430.5q0 141 -61 264t-161 206q-169 139 -387 139zM911 955q71 0 122 -51t51 -122q0 -65 -45 -116q-53 -57 -128 -57q-74 0 -123.5 51t-49.5 122t49.5 122t123.5 51z" />
    <glyph glyph-name="R" unicode="R" 
d="M911 1401q-147 0 -246 -109q-87 -96 -87 -224q0 -127 87 -223q99 -110 246 -110q136 0 234 98.5t98 234.5q0 138 -97.5 235.5t-234.5 97.5zM572 387h257v191q-176 30 -295.5 169.5t-119.5 320.5q0 204 146 350t351 146t350.5 -145.5t145.5 -350.5q0 -184 -119 -321.5
t-295 -167.5v-192h256v-142h-256v-245h-164v245h-257v142z" />
    <glyph glyph-name="S" unicode="S" 
d="M128 483l92 89q34 33 44 43q15 15 42 46q80 91 132 203q85 185 85 356q0 68 -17.5 138.5t-64.5 123.5q-37 42 -94 70q-27 11 -56.5 18t-56.5 7q-48 0 -101 -21q23 26 75 51q24 11 45 20.5t43 17.5q67 23 122 23q87 0 162 -60q65 -55 101 -149q32 -87 32 -201
q0 -89 -20 -183q-14 -67 -36 -134t-56 -139q-53 -107 -117 -191h654v148q-110 24 -188 108q-91 100 -91 236q0 144 102 247.5t248 103.5q135 0 236 -91q115 -106 115 -260q0 -144 -103 -248q-74 -74 -176 -96v-148h413v-128h-413v-172h224v-120h-224v-191h-143v191h-223v120
h223v172h-1010zM1209 1314q-88 0 -149.5 -62t-61.5 -149q0 -81 55 -142q64 -70 156 -70q87 0 149.5 62.5t62.5 149.5q0 93 -69 156q-61 55 -143 55z" />
    <glyph glyph-name="T" unicode="T" 
d="M1127 499q0 -206 -147 -352.5t-352 -146.5q-235 0 -384 182q-114 138 -114 317q0 197 138 343q147 155 360 155q153 0 291 -92l338 338q-58 45 -123.5 71.5t-139.5 35.5l697 216l-211 -702q-8 78 -41 152q-25 57 -66 111l-338 -338q92 -142 92 -290zM963 499
q0 135 -99 234.5t-236 99.5t-235.5 -99t-98.5 -235q0 -129 87 -225q98 -110 247 -110q138 0 236.5 99t98.5 236z" />
    <glyph glyph-name="U" unicode="U" 
d="M1626 -227q-47 -89 -141 -146q-37 -21 -73.5 -32t-74.5 -11q-96 0 -173 70q-60 54 -79 125q-13 43 -12 95q0 18 0.5 24.5t1.5 15.5q7 68 24 135l36 148q20 78 20 153q0 55 -16 124.5t-51 126.5t-91 98t-138 41q-198 0 -256 -134v-606h-154v1150h-254v143h254v271h154
v-271h254v-143h-254v-336q98 80 245 80q129 0 216 -53.5t139 -128.5q57 -85 82 -184.5t25 -169.5q0 -95 -27.5 -187.5t-42.5 -184.5q-9 -54 -9 -97q0 -34 6 -63q23 -105 120 -105q88 0 167 109t102 173v-230z" />
    <glyph glyph-name="V" unicode="V" 
d="M1249 135h-254v-238h-168v238h-254v141h254v239l-451 484l526 564l543 -565l-450 -480v-242h254v-141zM910 672l296 325l-300 320l-290 -320z" />
    <glyph glyph-name="W" unicode="W" 
d="M784 1564q137 0 257 -52t220 -152q105 -107 169 -259.5t64 -318.5q0 -168 -56 -308t-152.5 -246t-227 -167t-274.5 -61q-158 0 -307 81q-59 32 -149 100q30 -3 59 -3q46 0 90 9q194 45 310 227q106 165 106 368q0 221 -124 393q-87 124 -221 180q-78 31 -162 31h-23.5
t-33.5 -4q76 68 151 106t150 57t154 19zM614 1424q97 -26 190 -104q71 -63 123 -140q122 -181 122 -398q0 -207 -110 -387q-59 -97 -127 -156q-87 -77 -194 -102q31 -10 72.5 -13.5t94.5 -3.5q99 9 185 53q158 80 257 252q93 165 93 357q0 203 -112 370q-107 159 -277 237
q-74 31 -155 43q-13 2 -32 3t-34 1q-52 0 -96 -12z" />
    <glyph glyph-name="X" unicode="X" 
d="M1436 1324q64 0 134.5 -31t121.5 -95v-283l-52 -5q-16 140 -57 211q-66 111 -147 111q-51 0 -108 -62t-90 -166q-50 -153 -50 -339q0 -183 46 -327q33 -108 90 -173.5t112 -65.5q87 0 156 127q21 40 33 88.5t12 108.5l55 -14v-275q-41 -54 -117 -94t-139 -40
q-109 0 -198.5 79.5t-146.5 212.5q-31 73 -51.5 168.5t-20.5 201.5q0 236 96 421q57 110 140.5 175.5t180.5 65.5zM793 1037l-246 -1037h-34l-239 969v-818q0 -28 14.5 -46.5t45.5 -18.5v-86h-204v86q31 3 45 20q13 20 13 44v1038q0 22 -14 39q-17 20 -44 20v77h191
l235 -916l217 916h216v-79q-42 0 -64 -14.5t-22 -48.5v-1022q0 -32 21.5 -53t55.5 -21v-86h-268v85q33 0 57 21t24 52v879z" />
    <glyph glyph-name="Y" unicode="Y" 
d="M649 574h370v255l168 169v-424h361v-142h-361v-432h-168v432h-746q20 18 69 63q70 64 105 103q81 89 132 195q85 176 85 342q0 65 -17.5 132t-64.5 119q-37 40 -94 67q-57 24 -113 24q-28 0 -50 -4t-52 -16q24 24 76 49q28 13 49 21.5t39 14.5q32 10 64 16t58 6
q51 0 98 -19q56 -25 94 -66q46 -48 71 -115q32 -84 32 -193q0 -85 -20 -176q-14 -64 -36 -128t-56 -133q-41 -82 -93 -160z" />
    <glyph glyph-name="Z" unicode="Z" 
d="M905 140q6 -31 25.5 -45t44.5 -14v-81h-270v81q27 0 43 17q7 7 9 15t2 23l-77 347l-243 -1l-78 -336q-1 -5 -1.5 -10.5t-0.5 -7.5q0 -19 12 -31q19 -17 68 -17v-80h-264v80q36 0 59 19q18 12 27 42l284 1183h111zM565 1013l-105 -437h202zM1390 1324q64 0 134.5 -31
t121.5 -95v-283l-52 -5q-9 64 -20 114.5t-37 96.5q-66 111 -147 111q-51 0 -108 -62t-90 -166q-50 -155 -50 -339q0 -183 46 -327q33 -108 90 -173.5t112 -65.5q87 0 156 127q21 38 32.5 86.5t11.5 110.5l56 -14v-275q-41 -55 -117.5 -94.5t-138.5 -39.5q-109 0 -199.5 80
t-146.5 212q-71 168 -71 370q0 236 96 421q57 110 140.5 175.5t180.5 65.5z" />
    <glyph glyph-name="bracketleft" unicode="[" 
d="M911 1452l671 -512l-257 -828h-830l-256 828zM911 1237l-462 -355l184 -595h555l184 595z" />
    <glyph glyph-name="backslash" unicode="\" horiz-adv-x="800" 
d="M696 -103h-171l-421 1771h163z" />
    <glyph glyph-name="bracketright" unicode="]" 
d="M392 97h1038v-160h-1038v160zM911 1646l671 -512l-256 -828h-830l-257 828zM911 1430l-462 -357l185 -601h554l184 601z" />
    <glyph glyph-name="asciicircum" unicode="^" horiz-adv-x="1200" 
d="M274 578v-298h199q66 0 114 40t48 108q0 67 -45 108.5t-117 41.5h-199zM274 165v-440h-174v967h210l212 1q118 0 203.5 -77.5t85.5 -186.5q0 -118 -95 -195q-81 -69 -194 -69h-248z" />
    <glyph glyph-name="underscore" unicode="_" horiz-adv-x="1563" 
d="M1562 -329h-1561v148h1561v-148z" />
    <glyph glyph-name="grave" unicode="`" 
d="M1083 1668q137 0 239 -46q-156 -84 -247 -227q-94 -150 -94 -322q0 -175 92.5 -320t248.5 -228q-115 -53 -239 -53q-31 0 -90 9v-219h257v-143h-257v-222h-164v222h-257v143h257v270q-154 80 -240 224q-45 75 -65 138q-24 77 -24 179q0 110 45.5 226.5t125.5 198.5
q165 170 412 170z" />
    <glyph glyph-name="a" unicode="a" 
d="M1258 1563q180 0 307 -127t127 -304q0 -208 -165 -339l-102 143q91 77 91 196q0 117 -94 198q-74 59 -164 59q-103 0 -178 -71q-38 -35 -59 -84.5t-21 -99.5v-1134h-176v1133q0 113 -86 189q-76 67 -174 67q-112 0 -191 -85q-67 -76 -67 -172q0 -118 91 -196l-102 -143
q-165 129 -165 339q0 165 113 290q129 141 321 141q110 0 198 -42.5t155 -129.5q65 87 148.5 129.5t192.5 42.5z" />
    <glyph glyph-name="b" unicode="b" 
d="M399 1125v-269q0 -52 37 -88q15 -14 33 -21t43 -7q44 0 73 38q26 34 26 78v40h84v-410h-84v40q0 40 -26 76q-31 40 -75 40q-49 0 -75 -23q-36 -29 -36 -83v-340q0 -52 21.5 -75t70.5 -23h83q34 0 61.5 25.5t42.5 71.5l14 60q2 11 4.5 24t9.5 36l77 -26l-61 -289h-574v98
q34 0 65.5 28t31.5 69v929q0 33 -22 64q-27 39 -75 39v96l575 1l19 -97l41 -192l-77 -25l-27 119q-9 41 -40 69.5t-65 28.5h-91q-42 0 -61 -23q-23 -28 -23 -79zM1035 82q53 0 78.5 16.5t25.5 44.5v1038q0 31 -37 49q-30 12 -67 12v82h318q85 0 148 -41q52 -34 108 -110
q77 -110 77 -230q0 -189 -103 -307q-54 -60 -126.5 -94.5t-161.5 -34.5v-365q0 -26 15 -40q22 -20 91 -20v-82h-366v82zM1295 1227v-594q44 0 85 23.5t79 68.5q74 91 74 206q0 111 -60 197q-69 99 -178 99z" />
    <glyph glyph-name="c" unicode="c" 
d="M1692 0h-261q-128 160 -198 344q-36 92 -55 171q-23 96 -23 180h-487q0 -98 -27 -202q-21 -82 -69 -193q-70 -162 -181 -300h-261q155 143 250 333q84 173 101 362h-252v174h252q-18 192 -101 363q-91 188 -250 332h257q111 -138 183 -300q79 -185 97 -395h488
q0 89 25 188q20 81 63 186q72 177 193 321h256q-166 -148 -260 -354q-75 -167 -90 -341h252v-174h-253q0 -88 29 -184q24 -78 73 -178q90 -186 249 -333z" />
    <glyph glyph-name="d" unicode="d" 
d="M910 1295q-135 0 -258 25v-1076q129 25 258 25q135 0 258 -25v1076q-129 -25 -258 -25zM483 197v1170q-199 68 -349 197h309q221 -111 467 -111q244 0 467 111h310q-152 -129 -350 -198v-1169q197 -68 350 -197h-310q-221 111 -467 111q-244 0 -467 -111h-309
q148 126 349 197z" />
    <glyph glyph-name="e" unicode="e" 
d="M910 1103l-483 -825h965zM911 1456l780 -1348h-1560z" />
    <glyph glyph-name="f" unicode="f" 
d="M510 905q156 0 267.5 -111.5t111.5 -269.5q0 -104 -51 -191.5t-140 -138.5q47 -12 97 -20.5t94 -8.5q120 0 214 19q107 22 203 70q249 123 385 365v-285q-73 -76 -156.5 -135.5t-181.5 -104.5q-110 -50 -228 -73t-243 -23q-63 0 -127 10.5t-145 33.5q-148 40 -268 123
q-94 64 -153 153.5t-59 205.5q0 156 111.5 268.5t268.5 112.5zM510 736q-90 0 -151 -64.5t-61 -147.5q0 -87 61 -149.5t151 -62.5q92 0 156 70q55 61 55 142q0 91 -69 157q-31 27 -66 41t-76 14zM1311 659q-178 0 -293 139q-87 105 -87 242q0 52 13 100t40 93q47 82 138 137
q-57 14 -101.5 21.5t-88.5 7.5q-124 0 -233 -24t-211 -78q-232 -126 -358 -352v285q135 141 312 228q117 58 239.5 84t256.5 26q53 0 109.5 -9.5t129.5 -28.5q132 -33 245.5 -96.5t191 -161.5t77.5 -232q0 -156 -112 -268.5t-268 -112.5zM1311 828q87 0 149 62t62 150
q0 92 -69 157q-31 27 -66 41t-76 14q-83 0 -142 -55q-70 -64 -70 -157q0 -88 62 -150t150 -62z" />
    <glyph glyph-name="g" unicode="g" 
d="M433 616q-59 0 -102 -42t-43 -101q0 -56 38 -95q42 -47 107 -47q56 0 101 40t45 102q0 61 -48 106q-43 37 -98 37zM1691 -253q-129 -163 -309 -163q-87 0 -157.5 42.5t-121.5 109.5q-79 109 -79 225q0 24 3 48q21 140 93 283l127 210l119 206q67 118 99 202q36 94 36 165
q0 101 -48 181q-51 86 -159 155q-127 83 -286 83q-111 0 -210.5 -41.5t-167.5 -123.5q-96 -126 -96 -273q0 -39 8 -85q24 -139 136 -323q58 -78 58 -175q0 -122 -88.5 -209t-214.5 -87q-133 0 -224 97q-79 85 -79 199q0 118 83 204q42 44 90 67q53 26 112 26
q-43 96 -64.5 182t-21.5 154q0 70 28.5 144t84.5 155q94 138 258 206q137 56 308 56q88 0 168 -14.5t143 -41.5q169 -72 264 -190q108 -135 108 -323q0 -221 -163 -484q-102 -162 -191 -292q-93 -138 -122 -265q-10 -44 -10 -88q0 -70 31 -127q44 -75 140 -80q8 -1 15 -1
q8 1 15 2q72 9 151 80.5t134 158.5v-255z" />
    <glyph glyph-name="h" unicode="h" 
d="M1111 1021q0 121 -34 164q-20 25 -43.5 38.5t-51.5 13.5q-30 0 -54 -4.5t-49 -16.5q-53 -28 -86 -76q6 -45 6 -117v-1023h-173v1064q-1 23 -3 45q-3 22 -10 39.5t-22 36.5q-39 53 -109 53q-81 0 -132 -57l-32 -39v-1142h-173v1471l85 93h88v-302l24 38q39 51 90 77
t106 26q89 0 164 -66q39 -36 61 -83q15 31 44 58q40 44 84 64q60 27 135 27q86 0 161 -66q55 -52 79 -132q18 -63 18 -173q205 -28 322 -190q101 -140 101 -337q0 -153 -73 -317q-66 -143 -169 -263l-97 -106q79 -77 177 -77q46 0 86 20q45 19 75 41v-180q-62 -39 -161 -39
q-90 0 -168.5 34.5t-138.5 93.5q-60 -41 -150 -76q-54 -20 -113 -36t-112 -16q-72 0 -150 28v174q85 -41 159 -41q72 0 142.5 29.5t131.5 68.5q-35 81 -35 157v1021zM1284 857l1 -857q-2 -18 4 -43q61 58 117.5 138.5t96.5 184.5q20 53 29.5 103.5t9.5 104.5q0 168 -96 273
q-66 71 -162 96z" />
    <glyph glyph-name="i" unicode="i" 
d="M237 523h522l-505 577l130 114l527 -600l525 600l131 -114l-506 -577h523v-174h-1347v174z" />
    <glyph glyph-name="j" unicode="j" 
d="M1372 818h319v-164h-485v156q0 66 -21.5 119.5t-61.5 97.5q-80 91 -212 91q-128 0 -212 -91q-40 -44 -61.5 -98.5t-21.5 -118.5v-156h-486v164h320q0 98 32.5 179t100.5 150q135 138 328 138q177 0 311 -122q75 -69 112.5 -155.5t37.5 -189.5zM130 442h1561v-164h-1561
v164z" />
    <glyph glyph-name="k" unicode="k" 
d="M1578 -123q-36 -94 -122 -178q-58 -55 -118.5 -84t-128.5 -29q-70 0 -125.5 24t-98.5 75q-36 43 -53 94t-17 112q0 67 22 130q10 30 25 65t31 65q33 65 66 122t66 121q85 173 106 363q3 35 3 68q0 103 -33 190q-17 44 -34 76q-20 37 -49 71t-59 53q-36 23 -73 23
q-34 0 -57 -4.5t-49 -17.5q-49 -25 -86 -75q6 -45 6 -117v-1024h-174v1021q0 118 -34 165q-37 53 -110 53q-50 0 -91 -27q-32 -21 -59 -52l-14 -17v-1143h-173v1472l85 92h88v-302l24 39q39 51 89 76.5t108 25.5q89 0 164 -66q39 -37 61 -83q12 26 44 59q43 45 85 64
q58 26 132 26q87 0 163.5 -68t127.5 -165t70 -217q5 -35 6.5 -68.5t1.5 -84.5v-50q0 -47 -10 -93t-28 -97q-30 -92 -70 -169t-88 -152l-91 -154q-56 -96 -56 -185q0 -19 1 -28q13 -137 135 -154q7 -1 20 -1q88 0 172 87q49 54 89 135l-51 14q-21 4 -38 6t-39 2
q-10 0 -19.5 -0.5t-17.5 -1.5q-53 -5 -107 -28l511 347l-1 -621q-12 65 -28 97q-30 58 -71 97z" />
    <glyph glyph-name="l" unicode="l" 
d="M1369 1118l-523 -522l225 -101l-71 -159l-285 128l-462 -461l-123 123l415 415l-221 99l71 159l282 -127l569 569q-56 40 -120 67.5t-140 36.5l706 220l-219 -706q-9 78 -41 150q-22 53 -63 109z" />
    <glyph glyph-name="m" unicode="m" 
d="M1527 1129q85 -15 125 -67t40 -109q0 -64 -41 -116.5t-111 -52.5q67 0 111 -55q41 -50 41 -111q0 -57 -39 -110t-127 -73q39 66 39 127q0 45 -18.5 74.5t-45 44.5t-47.5 15h-455v-458q0 -19 10.5 -42t30 -38.5t41.5 -23t51 -7.5q55 0 125 38q-15 -87 -66.5 -126
t-109.5 -39q-64 0 -116 40.5t-52 111.5q0 -35 -13.5 -62t-41.5 -50q-51 -40 -112 -40q-57 0 -110.5 39t-72.5 127q68 -41 123 -41q59 0 94 30q22 16 33.5 39.5t11.5 42.5v459h-461q-19 0 -44.5 -14t-41.5 -37q-24 -35 -24 -84q0 -58 40 -126q-88 18 -126.5 71.5t-38.5 111.5
q0 62 40 112q21 26 48 39.5t63 15.5q-36 2 -63.5 14.5t-48.5 39.5q-39 51 -39 114q0 58 38.5 108.5t125.5 67.5q-37 -68 -37 -121q0 -47 18 -80q15 -29 41 -43.5t51 -14.5h459v458q0 19 -11 40q-14 27 -40 44q-36 26 -85 26q-55 0 -126 -40q18 87 72 126.5t111 39.5
q61 0 112 -42q27 -20 41 -47.5t14 -62.5q0 68 53 110t115 42q57 0 108.5 -39.5t67.5 -125.5q-68 37 -126 37q-50 0 -83 -24q-24 -14 -36.5 -38.5t-12.5 -47.5v-456h455q23 0 45 12q27 15 44 43q21 37 21 81q0 52 -37 123z" />
    <glyph glyph-name="n" unicode="n" 
d="M362 1120v-267q0 -54 36 -87q31 -29 76 -29q44 0 73 38q26 34 26 78v40h84v-409h-84v39q0 42 -26 77q-31 40 -75 40q-46 0 -75 -23q-35 -29 -35 -82v-340q0 -52 21 -74.5t70 -22.5h83q37 0 63 26q29 26 41 70l14 60q2 11 4.5 24t9.5 36l77 -26l-61 -288h-574v98
q34 0 65.5 28t31.5 68v926q0 35 -22 63q-27 39 -75 39v97h575l61 -288l-78 -25l-27 119q-9 41 -39.5 69t-65.5 28h-91q-39 0 -61 -24t-22 -78zM1279 1208q-64 0 -121.5 -58.5t-96.5 -162.5q-54 -144 -54 -328q0 -167 43 -297q63 -201 179 -243v201h102v-200q107 42 171 225
q49 142 49 314q0 198 -62 349q-81 200 -210 200zM1334 4q7 -66 31 -110q35 -66 105 -72q27 0 54.5 8.5t58.5 28.5q61 39 129 142v-221l-28 -24q-23 -18 -49.5 -32.5t-57.5 -24t-62 -13.5q-7 -1 -22 -1q-46 0 -98 23q-60 26 -101 87q-29 44 -46 96.5t-17 111.5
q-94 15 -175 89.5t-135 194.5q-38 82 -57 170.5t-19 201.5q0 234 100 419q60 112 145 175q89 66 189 66q190 0 320 -217q113 -190 113 -443q0 -233 -96 -415q-111 -207 -282 -240z" />
    <glyph glyph-name="o" unicode="o" 
d="M237 1040v174h1347v-174h-523l506 -576l-131 -115l-525 600l-527 -600l-130 115l505 576h-522z" />
    <glyph glyph-name="p" unicode="p" 
d="M1469 1217l-433 -433q54 -89 54 -192q0 -153 -108.5 -260.5t-260.5 -107.5q-153 0 -260.5 107.5t-107.5 260.5t108 261t261 108q102 0 191 -54l433 433z" />
    <glyph glyph-name="q" unicode="q" 
d="M888 759q-53 51 -130 51q-8 0 -14 -0.5t-14 -1.5q-84 -12 -148 -76t-76 -148q-1 -8 -1.5 -17.5t-0.5 -13.5q0 -74 50.5 -126t125.5 -52h12q7 0 21 2q83 10 148.5 76.5t76.5 157.5q1 7 1 22q0 73 -51 126zM1469 1217l-433 -433q54 -89 54 -192q0 -152 -108 -260t-260 -108
q-153 0 -261 106.5t-108 261.5q0 153 108 261t261 108q102 0 192 -54l432 433z" />
    <glyph glyph-name="r" unicode="r" 
d="M364 1370h1130v-1130h-1130v1130zM516 1222v-829h829v829h-829z" />
    <glyph glyph-name="s" unicode="s" 
d="M910 1061q-216 0 -362 -161q-64 -70 -95.5 -151.5t-31.5 -177.5q0 -189 127 -329q146 -161 362 -161q189 0 329 128q161 144 161 362q0 200 -143.5 345t-346.5 145zM1258 1148q159 -96 247 -260q40 -74 60 -152t20 -165q0 -138 -53 -261.5t-145 -215t-215.5 -144.5
t-261.5 -53q-140 0 -262 52.5t-214 144.5q-100 99 -149 218.5t-49 258.5q0 171 79 317q88 164 247 260q-130 80 -213 204q-66 100 -94 212h204q42 -121 145 -206q132 -111 306 -111q153 0 278 89q120 85 173 228h204q-30 -129 -111 -238.5t-196 -177.5z" />
    <glyph glyph-name="t" unicode="t" 
d="M1393 403l-395 228v-456h-174v456l-395 -228l-87 151l395 228l-395 228l87 150l395 -228v456h174v-456l395 228l87 -150l-395 -228l395 -228z" />
    <glyph glyph-name="u" unicode="u" 
d="M344 1550h1125v-1130h-476v-253h476v-172h-649v425h-476v1130zM993 897v-309h310v807h-795v-807h313v309h172z" />
    <glyph glyph-name="v" unicode="v" 
d="M960 903l379 489h-881v172h1234l-484 -625h13q192 0 331 -137.5t139 -332.5q0 -194 -138 -331.5t-332 -137.5q-193 0 -332 138t-139 331q0 92 36 181q-188 -101 -324.5 -313t-169.5 -440h-162q12 98 38 189.5t72 187.5q81 170 208 311q121 132 268 217q111 64 244 101z
M976 639q-56 -77 -56 -170q0 -120 88.5 -206.5t212.5 -86.5q122 0 211 86t89 207q0 120 -89.5 207t-210.5 87q-149 0 -245 -124z" />
    <glyph glyph-name="w" unicode="w" 
d="M1491 1362q-52 50 -130 50q-2 0 -11.5 -0.5t-16.5 -1.5q-83 -12 -148 -75q-78 -76 -78 -175q0 -80 49.5 -131t129.5 -51h16q6 1 9 1q86 9 153 76q63 63 76 149q1 10 1.5 18t0.5 13q0 73 -51 127zM665 535q-27 26 -61 38.5t-77 12.5q-91 0 -168.5 -77.5t-77.5 -174.5
q0 -83 50 -133t129 -50q16 0 24 1q88 11 154 77q36 36 56 75t20 83q0 49 -10.5 84.5t-38.5 63.5zM1132 880l-319 -320q53 -88 53 -192q0 -152 -107.5 -260t-260.5 -108t-260.5 107.5t-107.5 260.5q0 154 107.5 261.5t261.5 107.5q101 0 191 -54l319 320q-53 89 -53 192
q0 153 108 261t261 108q149 0 258 -107.5t109 -261.5t-107.5 -261t-259.5 -107q-52 0 -100 13t-93 40z" />
    <glyph glyph-name="x" unicode="x" 
d="M130 722q60 0 105 -45.5t81 -108.5q43 -82 76 -168q30 -82 55 -82q21 0 48 66q19 47 30 71.5t35 72.5q38 75 83 132q50 62 113 62q59 0 101.5 -47.5t77.5 -116.5q42 -84 72 -162t58 -78q27 0 55 74q12 34 29.5 74.5t37.5 81.5q34 70 77.5 121.5t106.5 51.5q64 0 109 -55
q42 -52 77 -124l66 -149q31 -72 68 -72v-177q-63 0 -107.5 51.5t-81.5 122.5q-22 43 -40 81t-32 74q-31 75 -55 75q-23 0 -53 -67l-66 -143q-36 -73 -81.5 -133t-105.5 -60q-57 0 -103.5 54t-84.5 128q-19 37 -37.5 74.5t-35.5 75.5q-30 71 -52 71q-20 0 -51.5 -74
t-74.5 -156q-36 -69 -82 -121t-104 -52q-62 0 -105 55.5t-75 126.5l-69 149q-30 71 -65 71v175zM130 1418q60 0 105 -45.5t81 -108.5q45 -83 75.5 -166t55.5 -83q21 0 48 66q19 47 30 71.5t35 72.5q38 75 83 132q49 61 113 61q59 0 101 -47t78 -116q42 -84 72 -161.5
t58 -77.5q27 0 55 75.5t67 153.5q34 70 77.5 121.5t106.5 51.5q65 0 108 -54t78 -126l66 -149q31 -71 68 -71v-177q-63 0 -107.5 51.5t-81.5 122.5q-22 43 -40 81t-32 74q-30 74 -55 74q-23 0 -53 -66l-66 -144q-36 -72 -81.5 -132t-105.5 -60q-57 0 -103.5 54t-84.5 128
q-19 37 -37.5 74.5t-35.5 75.5q-30 70 -52 70q-20 0 -51.5 -73.5t-74.5 -155.5q-36 -69 -82 -121t-104 -52q-62 0 -105 55.5t-75 126.5l-69 149q-30 71 -65 71v174z" />
    <glyph glyph-name="y" unicode="y" 
d="M587 403h892v-174h-1137v173l932 933l123 -123z" />
    <glyph glyph-name="z" unicode="z" 
d="M1442 1328q98 0 173.5 -86.5t75.5 -217.5q0 -121 -68 -210q-75 -95 -181 -95q-66 0 -123 41q0 -79 -19.5 -185t-28.5 -154q-22 -116 -51 -233.5t-68 -245.5q-26 -89 -57.5 -181t-64.5 -177h-197q34 90 67 184q29 84 58 175q48 157 84.5 308t61.5 302q20 126 27 280
q4 91 4 243q0 101 -25.5 179.5t-67.5 129.5h-4l-370 -1385h-124l-265 1111l-149 -63v204l278 115l206 -913l290 1110h190q68 -41 119 -121q43 -70 74 -181q69 66 155 66zM1442 1171q-54 0 -93 -46t-39 -99q0 -58 40 -103.5t92 -45.5q47 0 84.5 45t37.5 106q0 58 -36 100.5
t-86 42.5z" />
    <glyph glyph-name="braceleft" unicode="{" 
d="M911 1057q69 0 121 -51t52 -122q0 -66 -46 -116q-51 -57 -127 -57q-73 0 -123.5 52.5t-50.5 120.5q0 69 51 121t123 52zM729 229q0 -122 -87 -212q-91 -86 -212 -86q-117 0 -201 77q-98 87 -98 221q0 93 54.5 171.5t148.5 111.5q-119 169 -119 377q0 260 181 453
q97 105 227 162q136 60 288 60q246 0 442 -154q117 -95 183 -227q70 -139 70 -294q0 -207 -119 -377q89 -30 146 -108t57 -175q0 -127 -93 -217q-87 -81 -206 -81q-123 0 -211 86.5t-88 211.5q0 74 35.5 140t96.5 108q95 68 154.5 177.5t59.5 234.5q0 226 -173 378
q-152 134 -354 134q-234 0 -391 -169q-137 -146 -137 -343q0 -128 60 -237t160 -179q43 -34 80 -84q46 -74 46 -160zM1391 358q-54 0 -92 -38t-38 -91t39 -91.5t91 -38.5q53 0 91 38t38 92t-37 91.5t-92 37.5zM430 358q-57 0 -93 -40q-36 -36 -36 -89q0 -54 38 -92t91 -38
q51 0 92 38q38 40 38 92q0 54 -40 94q-40 35 -90 35z" />
    <glyph glyph-name="bar" unicode="|" horiz-adv-x="514" 
d="M178 -103v1771h157v-1771h-157z" />
    <glyph glyph-name="braceright" unicode="}" 
d="M910 437q-71 0 -122 51t-51 122q0 68 49.5 120.5t123.5 52.5t128 -57q45 -48 45 -116q0 -71 -50.5 -122t-122.5 -51zM729 1265q0 -88 -47 -160q-29 -46 -79 -84q-99 -69 -159.5 -178t-60.5 -238q0 -198 137 -344q158 -168 390 -168q204 0 354 134q174 150 174 378
q0 65 -14 121t-45 112q-57 108 -155 179q-60 38 -96 105q-17 32 -27 68.5t-10 74.5q0 123 88 211t211 88q121 0 207 -83q93 -89 93 -216q0 -96 -56 -174.5t-147 -108.5q119 -172 119 -377q0 -153 -67 -289.5t-187 -231.5q-194 -153 -442 -153q-150 0 -283 57.5t-232 162.5
q-181 193 -181 454q0 204 119 377q-91 31 -146.5 110t-55.5 173q0 132 98 221q84 78 201 78q123 0 211 -88t88 -211zM1390 1135q51 0 90.5 38.5t39.5 91.5t-38 91t-92 38t-91.5 -37t-37.5 -92q0 -54 38 -91q36 -39 91 -39zM430 1135q50 0 89.5 37t39.5 93q0 54 -37 91.5
t-92 37.5q-54 0 -92 -38t-38 -91q0 -50 37.5 -90t92.5 -40z" />
    <glyph glyph-name="asciitilde" unicode="~" 
d="M831 1668q70 0 128 -11t110 -36q-156 -82 -247 -226q-94 -150 -94 -322q0 -175 92.5 -320t248.5 -228q-58 -27 -115.5 -40t-122.5 -13q-29 0 -91 9v-219h257v-143h-257v-222h-164v222h-257v143h257v270q-155 81 -240 223q-45 73 -65 140q-24 79 -24 178q0 110 45.5 226.5
t125.5 198.5q165 170 413 170zM1400 364q66 0 117 -45q57 -53 57 -129q0 -73 -50.5 -123.5t-123.5 -50.5q-77 0 -128 57q-46 49 -46 117q0 69 51 121.5t123 52.5z" />
    <glyph glyph-name="quotesinglbase" unicode="&#x201a;" 
d="M1263 505q146 -146 146 -352q0 -205 -145 -351t-354 -146q-206 0 -351.5 145.5t-145.5 351.5q0 207 145 352q105 105 271 141v478q-76 -10 -142.5 -38.5t-119.5 -71.5l344 654l344 -654q-61 47 -137 78q-30 11 -59 18.5t-66 13.5v-478q165 -34 270 -141zM1147 389
q-98 98 -235 98q-140 0 -237.5 -97.5t-97.5 -236.5q0 -138 97 -235.5t237 -97.5q138 0 236 98.5t98 234.5q0 138 -98 236zM912 276q48 0 87 -36q35 -37 35 -87q0 -47 -32 -82q-36 -41 -90 -41t-91 41q-32 35 -32 82q0 51 36 87t87 36z" />
    <glyph glyph-name="florin" unicode="&#x192;" 
d="M983 493q99 -25 164.5 -107.5t65.5 -186.5q0 -117 -79 -203q-90 -99 -223 -99q-134 0 -224 99q-79 85 -79 203q0 103 66 187q62 80 164 107h-68q-119 0 -220.5 48.5t-176.5 138.5q-118 144 -118 327v557h174v-540q0 -136 87 -240q99 -117 245 -117h63v897h174v-897h62
q140 0 239 111q92 103 92 246v540h175v-557q0 -199 -134 -345q-155 -169 -381 -169h-68zM911 394q-61 0 -104.5 -57.5t-43.5 -137.5q0 -81 42.5 -138.5t105.5 -57.5t109 64q38 55 38 132q0 68 -34 124q-45 71 -113 71z" />
    <glyph glyph-name="quotedblbase" unicode="&#x201e;" 
d="M518 1390v-575h495q137 0 225 104q66 80 66 184q0 119 -85 203t-206 84h-495zM518 174h929v-174h-1103v1564h669q178 0 312 -119q153 -138 153 -342q0 -185 -128 -319q-137 -143 -334 -143h-498v-467z" />
    <glyph glyph-name="ellipsis" unicode="&#x2026;" 
d="M1691 890q0 -158 -47.5 -298.5t-141.5 -266.5q-112 -148 -270 -236.5t-337 -88.5q-153 0 -285.5 61.5t-234.5 169.5q-114 118 -182 291q-32 83 -47 174t-15 191q0 87 16 163q120 -214 320.5 -341t438.5 -127q226 0 435 130q204 126 340 340q10 -71 10 -162zM910 1564
q119 0 206 -80q100 -91 100 -227q0 -133 -95 -222q-90 -85 -211 -85q-135 0 -226 101q-80 88 -80 206q0 114 75 201q91 106 231 106zM910 1457q-69 0 -117 -59t-48 -141q0 -72 37 -127q50 -73 128 -73q71 0 120 62q46 58 46 138q0 81 -48 140.5t-118 59.5zM1595 784
q-151 -197 -363 -298q-173 -79 -354 -79q-185 0 -363 103q-155 86 -292 249q77 -257 260.5 -417t403.5 -160q237 0 425 150q199 159 283 452z" />
    <glyph glyph-name="dagger" unicode="&#x2020;" 
d="M573 894h251v235q0 53 -18 98t-54 87q-68 76 -158 76h-60q-96 0 -163 -82q-34 -41 -51 -89t-17 -107v-208h-173v261q0 86 41.5 159t109.5 129q135 111 283 111q133 0 208.5 -41t138.5 -119q62 77 137.5 118.5t208.5 41.5q136 0 267 -98q70 -53 119 -131t49 -170v-260
h-174v207q0 115 -68 196.5t-163 81.5h-59q-101 0 -169 -90q-30 -38 -45.5 -79.5t-15.5 -91.5v-235h251v-142h-251v-283q83 -27 138 -90q76 -85 76 -200q0 -111 -69 -192q-90 -111 -232 -111q-140 0 -233 111q-69 81 -69 192q0 104 65 187q57 74 150 103v283h-251v142z
M911 375q-70 0 -114 -71q-34 -57 -34 -125q0 -65 30 -118q42 -78 118 -78q64 0 109 63q38 58 38 133q0 80 -43.5 138t-103.5 58z" />
    <glyph glyph-name="daggerdbl" unicode="&#x2021;" 
d="M913 1564q73 0 139 -12t132 -36q120 -45 224 -131q132 -110 206 -263q78 -160 78 -340q0 -158 -59 -300t-169 -253q-106 -106 -248.5 -167.5t-302.5 -61.5q-162 0 -303 61t-249.5 168t-169.5 249t-61 304q0 300 204 525q106 117 257.5 187t321.5 70zM854 1387
q134 -110 209 -265q79 -164 79 -340q0 -169 -70 -321q-75 -168 -218 -284l59 -3q140 0 261 59.5t207 162.5q139 168 139 386q0 140 -60 262t-161 207q-84 69 -180 104t-206 35zM636 241q147 74 239 219.5t92 321.5t-91 320t-240 221q-149 -75 -240.5 -221.5t-91.5 -319.5
q0 -151 72 -285q87 -168 260 -256z" />
    <glyph glyph-name="circumflex" unicode="&#x2c6;" 
d="M952 1323v-244h222q-12 94 -74.5 161.5t-147.5 82.5zM1286 0h-750v144h293v475q-157 30 -257 160q-88 115 -88 259q0 91 39 177q36 80 105 142q-71 62 -107.5 140t-36.5 172h161q0 -145 116 -232q38 14 73.5 21t76.5 7q76 0 150 -28q57 42 86.5 99.5t29.5 132.5h161
q0 -93 -36.5 -170.5t-107.5 -141.5q66 -60 105 -143t39 -176q0 -154 -98.5 -271.5t-246.5 -147.5v-475h293v-144zM1174 997h-222v-245q86 15 147 82t75 163zM870 752v245h-222q11 -94 72 -162t150 -83zM648 1079h222v244q-90 -15 -155 -90q-56 -65 -67 -154z" />
    <glyph glyph-name="perthousand" unicode="&#x2030;" 
d="M911 1565q151 0 286.5 -55t238.5 -149q117 -108 186.5 -259t69.5 -320q0 -82 -15 -157t-47 -148q-62 -142 -167.5 -247.5t-248.5 -167.5t-303 -62q-163 0 -304 61t-247 167.5t-169 248.5q-29 69 -45 147t-16 158q0 163 61.5 304.5t167.5 247.5t248 168.5t304 62.5z
M311 869h513v515q-213 -30 -358 -190q-128 -138 -155 -325zM998 1384v-515h514q-30 209 -189 359q-141 129 -325 156zM1512 696h-514v-515q184 26 325 155q159 149 189 360zM824 181v515h-513q24 -186 155 -326q146 -159 358 -189z" />
    <glyph glyph-name="Scaron" unicode="&#x160;" 
d="M572 1178v142h254v244h168v-244h255v-142h-255v-192q154 -27 265 -132q148 -145 148 -358q0 -201 -154 -354q-148 -142 -343 -142q-107 0 -201 43.5t-166 124.5q-129 144 -129 328q0 200 132 343q113 117 280 147v192h-254zM910 174q142 0 238 106q84 90 84 216
q0 134 -94.5 228.5t-227.5 94.5t-227.5 -94.5t-94.5 -228.5q0 -123 84 -216q97 -106 238 -106z" />
    <glyph glyph-name="guilsinglleft" unicode="&#x2039;" 
d="M730 229q0 -123 -88 -210.5t-212 -87.5q-114 0 -200 77q-99 87 -99 221q0 93 54.5 171.5t148.5 111.5q-119 172 -119 377q0 259 181 453q99 105 227 162q135 60 288 60q249 0 442 -154q117 -94 185.5 -230t68.5 -291q0 -206 -119 -377q86 -30 144 -108t58 -175
q0 -128 -93 -217q-86 -81 -206 -81q-124 0 -211 86q-44 45 -66 97t-22 115q0 74 37 142t96 106q96 69 154.5 178t58.5 234q0 226 -173 378q-152 134 -354 134q-234 0 -390 -169q-138 -147 -138 -343q0 -128 60 -237t160 -179q22 -16 41.5 -36.5t38.5 -47.5q47 -74 47 -160z
M1391 358q-54 0 -91.5 -37t-37.5 -92q0 -54 38 -92t91 -38t91.5 38.5t38.5 91.5q0 52 -37.5 90.5t-92.5 38.5zM430 358q-54 0 -91.5 -39t-37.5 -90q0 -53 38 -91.5t91 -38.5q54 0 92 38t38 92t-38.5 91.5t-91.5 37.5z" />
    <glyph glyph-name="OE" unicode="&#x152;" 
d="M729 1265q0 -90 -46 -160q-31 -47 -80 -84q-99 -69 -159.5 -178t-60.5 -238q0 -197 138 -344q156 -168 390 -168q202 0 354 134q173 150 173 378q0 65 -14 121t-45 112q-56 107 -154 179q-61 39 -97 105t-36 143q0 122 87 211q45 44 97 66t115 22q119 0 206 -83
q93 -89 93 -216q0 -97 -56.5 -175t-146.5 -108q120 -171 120 -377q0 -153 -67 -289.5t-187 -231.5q-195 -153 -442 -153q-152 0 -284.5 57t-230.5 163q-181 193 -181 454q0 204 119 377q-92 30 -147.5 109.5t-55.5 173.5q0 132 98 221q84 78 201 78q121 0 210 -87.5
t89 -211.5zM1391 1136q54 0 91.5 37t37.5 92q0 54 -37 91.5t-92 37.5q-54 0 -92 -38t-38 -91t38 -91t92 -38zM430 1136q52 0 91 37.5t39 91.5q0 53 -38 91t-92 38t-91.5 -37t-37.5 -92q0 -50 36.5 -89.5t92.5 -39.5z" />
    <glyph glyph-name="quoteleft" unicode="&#x2018;" 
d="M337 1207v-1093q0 -8 6 -19q7 -9 17 -10q81 0 132 73t83 175q27 93 39 189t12 158q0 29 -3 66.5t-10 88.5q-12 95 -42.5 183.5t-82.5 151t-128 62.5q-10 -1 -16 -7q-9 -6 -7 -18zM444 1324q87 0 156.5 -72t116.5 -194q30 -84 47.5 -197t17.5 -199q0 -194 -66 -389
q-39 -112 -105 -192.5t-167 -80.5h-324v76q31 0 52 17t21 47v1047q0 26 -20 43.5t-53 17.5v76h324zM1536 947q93 0 155 -90v-202l-30 -9q-9 102 -36 156q-33 65 -90 65q-69 0 -99 -150q-19 -98 -19 -234q0 -132 16 -224q27 -174 102 -174q60 0 96 76q13 29 20 63.5t7 78.5
l33 -10v-197q-60 -96 -155 -96q-130 0 -208 200q-47 124 -47 274q0 155 51 283q75 190 204 190zM989 804v-192q0 -40 26 -63q22 -20 54 -20q29 0 50 25.5t21 57.5v28h60v-293h-60v29q0 28 -18 55q-23 28 -54 28q-34 0 -54 -16q-25 -22 -25 -59v-244q0 -37 15 -53.5t50 -16.5
h59q29 0 47 19q11 10 16 23q1 3 7 22l14 44l56 -18l-34 -160h-408v70q24 0 46.5 20t22.5 49v665q0 21 -9 36.5t-25 26.5l-1 80h375l33 -159l-56 -18l-9 37q-6 30 -28.5 50t-46.5 20h-65q-28 0 -43.5 -17.5t-15.5 -55.5z" />
    <glyph glyph-name="quoteright" unicode="&#x2019;" 
d="M1402 1307q64 0 134.5 -30.5t121.5 -93.5v-280l-52 -5q-9 63 -20 113t-37 96q-66 109 -147 109q-51 0 -108 -61t-90 -164q-50 -151 -50 -335q0 -180 46 -322q33 -107 90 -171.5t112 -64.5q87 0 156 125q21 40 33 87.5t12 107.5l55 -14v-272q-41 -54 -117.5 -93
t-138.5 -39q-109 0 -198 78t-147 211q-31 72 -51.5 166t-20.5 199q0 232 96 415q57 109 140.5 173.5t180.5 64.5zM356 1178v-1066q0 -13 7 -20t17 -9q87 0 142 71t89 171q28 85 41.5 181.5t13.5 157.5q0 32 -3.5 67.5t-11.5 84.5q-12 95 -45 178q-18 45 -39 80t-50 67
q-54 62 -137 62q-10 -1 -17 -7t-7 -18zM472 1293q89 0 162.5 -71.5t120.5 -188.5q31 -80 49 -189.5t18 -196.5q0 -90 -15.5 -185t-53.5 -200t-107.5 -183.5t-174.5 -78.5h-336v75q31 0 53 16.5t22 45.5v1022q0 28 -23 45q-22 14 -52 14v74z" />
    <glyph glyph-name="quotedblleft" unicode="&#x201c;" 
d="M1229 1324q64 0 134.5 -31t121.5 -95v-283l-52 -5q-9 64 -20 114.5t-37 96.5q-31 52 -63.5 81.5t-83.5 29.5t-108 -62t-90 -166q-50 -155 -50 -339q0 -183 46 -327q33 -108 90 -173.5t112 -65.5q87 0 156 127q21 40 33 88.5t12 108.5l55 -14v-275q-41 -54 -117 -94
t-139 -40q-109 0 -198.5 79.5t-146.5 212.5q-71 168 -71 370q0 238 95 421q57 110 140.5 175.5t180.5 65.5zM537 1182v-1039q0 -24 14 -41q22 -19 89 -19v-83h-355v83q51 0 76 16t25 44v1038q0 30 -37 49q-28 12 -64 12v82h355v-82q-62 0 -85 -17q-18 -16 -18 -43z" />
    <glyph glyph-name="quotedblright" unicode="&#x201d;" 
d="M1302 1227v-594q44 0 85 23.5t79 68.5q74 88 74 206q0 111 -59 197q-71 99 -179 99zM1049 83q53 0 79 16.5t34 43.5v1038q-8 30 -46 49q-30 12 -66 12v82h318q44 0 82.5 -11.5t69.5 -33.5q57 -40 103 -106q77 -110 77 -229q0 -190 -103 -308q-54 -60 -126.5 -94.5
t-161.5 -34.5v-364q0 -26 15 -40q22 -20 91 -20v-83h-366v83zM855 140q6 -31 25.5 -45t44.5 -14v-81h-270v81q28 0 42 17q14 14 11 38l-78 346h-242l-77 -336q-3 -11 -3 -20q0 -17 13 -29q19 -17 67 -17v-80h-263v80q36 0 59 19q17 11 26 42l284 1183h111zM515 1013
l-105 -437h201z" />
    <glyph glyph-name="bullet" unicode="&#x2022;" 
d="M130 1324h266v-80q-32 0 -54 -19q-14 -14 -14 -31q0 -6 1 -10l160 -755l171 750q2 12 2 16q0 17 -12 31q-17 18 -54 18v80h210v-80q-30 0 -44 -13q-15 -11 -21 -38l-272 -1193h-23l-254 1198q-3 15 -21.5 30.5t-40.5 15.5v80zM1001 76q15 -17 48 -17v-59h-219v59
q26 0 47 14q15 12 15 32v715h-78q-19 0 -28 -9q-9 -7 -15 -27l-13 -63h-50l45 220h48q-3 -15 12 -21q4 -2 20.5 -2h25.5h235q21 0 28 23h48v-220h-48v61q0 13 -11 26q-8 7 -14.5 9.5t-12.5 2.5h-95v-715q0 -15 12 -29zM1504 510l133 -406q9 -28 16 -33q15 -12 38 -12v-59
h-210v59q23 0 41 18q11 11 11 27q0 10 -2 15l-82 247l-102 -265q-3 -8 -3 -14q0 -7 6 -15q11 -13 34 -13v-59h-174v59q21 0 39 12q9 6 16 22l148 382l-124 372q-4 13 -21 25q-19 11 -48 11v59h212v-59q-21 0 -31 -7.5t-10 -16.5q0 -6 3 -12l74 -227l84 216q5 15 -8 31
t-36 16v59h183v-59q-28 0 -40 -11q-8 -5 -14 -19z" />
    <glyph glyph-name="endash" unicode="&#x2013;" 
d="M504 1324q139 0 229 -126v-283l-41 -7q-15 135 -57 213q-59 111 -132 111q-103 0 -171 -207q-51 -156 -51 -360q0 -177 38 -316q31 -116 83.5 -183.5t100.5 -67.5q77 0 140 128q18 37 29 86.5t11 110.5l49 -14v-275q-35 -54 -95.5 -94t-132.5 -40q-75 0 -162.5 72.5
t-137.5 193.5q-74 178 -74 396q0 236 85 421q51 110 134 175.5t155 65.5zM1691 703l-26 -7q-15 92 -41 132q-31 48 -84 53q-58 0 -85 -74q-11 -33 -11 -62q0 -45 25 -85q21 -36 47 -62l54 -51q27 -25 51 -53t44 -72q26 -63 26 -147q0 -61 -11 -102q-45 -173 -184 -173
q-52 0 -107 26l-55 237l78 -24q-8 -22 -8 -42q0 -27 16 -57q31 -65 89 -65q43 0 74 50q25 38 25 83q0 47 -28 97q-19 35 -47 62l-54 53q-27 24 -51 51t-41 65q-32 75 -32 148q0 67 27 136q48 121 169 121q64 0 140 -38v-200zM1094 929l193 -929h-159v57q18 0 28.5 10.5
t8.5 27.5l-53 244l-167 -1l-54 -235q-1 -5 -1 -13q0 -13 10.5 -23.5t44.5 -10.5v-56h-181v56q24 0 40 13q12 12 18 30l195 830h77zM1032 711l-72 -307h138z" />
    <glyph glyph-name="emdash" unicode="&#x2014;" 
d="M375 1227v-594q44 0 85 23.5t79 68.5q73 90 73 206q0 114 -59 197q-69 99 -178 99zM115 83q53 0 78.5 16t25.5 44v1038q0 31 -37 49q-30 12 -67 12v82h318q44 0 82.5 -11.5t69.5 -33.5q56 -40 104 -106q77 -113 77 -230q0 -189 -103 -307q-55 -61 -123 -93
q-76 -36 -165 -36v-365q0 -23 15 -40q22 -19 91 -19v-83h-366v83zM1014 915l219 -915h-181v56q23 0 33.5 10.5t8.5 27.5l-60 239h-191l-61 -232q-2 -10 -2 -13q0 -12 12.5 -22.5t50.5 -10.5v-55h-207v55q27 0 46 13q15 9 21 29l223 818h88zM942 700l-82 -302h158zM1691 692
l-26 -6q-17 86 -50 129q-20 26 -43 39.5t-53 13.5q-35 0 -58.5 -17t-38.5 -56q-7 -16 -10 -30.5t-3 -30.5q0 -42 28 -84q23 -33 54 -61l62 -50q17 -14 23.5 -19.5t35.5 -34.5q28 -26 49 -69q30 -66 30 -146q0 -108 -54 -185q-62 -85 -168 -85q-64 0 -124 25l-53 229l80 -19
q-8 -22 -8 -41q0 -28 17 -56q35 -64 101 -64q50 0 86 49q27 39 27 82q0 46 -31 95q-22 32 -54 61l-61 53q-31 24 -58.5 50.5t-47.5 63.5q-36 72 -36 145q0 69 31 135q56 119 193 119q74 0 160 -37v-198z" />
    <glyph glyph-name="tilde" unicode="&#x2dc;" 
d="M703 105q-130 0 -222.5 92.5t-92.5 221.5v726q0 133 98 228q90 87 217 87h416q137 0 233 -103q82 -93 82 -212v-726q0 -124 -87 -216q-95 -98 -228 -98h-121v-150h436v-175h-610v325h-121zM824 487h174v-208h100q70 0 119 59q42 51 42 121v647q0 64 -36 116
q-23 32 -55 50.5t-70 18.5h-374q-35 0 -67.5 -17.5t-54.5 -47.5q-18 -24 -28.5 -55.5t-10.5 -64.5v-647q0 -68 42 -121q47 -59 119 -59h100v208z" />
    <glyph glyph-name="trademark" unicode="&#x2122;" horiz-adv-x="1498" 
d="M175 1564h425v-84h-162v-511h-101v511h-162v84zM765 1463v-494h-68v595h137l176 -455l177 455h135v-595h-101v495l-192 -495h-74z" />
    <glyph glyph-name="scaron" unicode="&#x161;" 
d="M562 278h236v209h174v-209h49q105 0 176 77q62 67 62 160q0 94 -61 159q-35 36 -79.5 56.5t-96.5 20.5h-460v-473zM972 -46h462v-175h-636v326l-410 -1v1355h593q150 0 259 -109q99 -104 99 -246q0 -77 -43.5 -142.5t-117.5 -105.5q110 -42 185 -142q70 -94 70 -199
q0 -171 -120 -291q-61 -61 -132.5 -90.5t-159.5 -29.5h-49v-150zM985 1285h-423v-362h428q80 0 135 68q40 52 40 113q0 73 -53.5 127t-126.5 54z" />
    <glyph glyph-name="guilsinglright" unicode="&#x203a;" 
d="M1254 1564v-1564h-164v1564h164zM732 1564v-1564h-164v1564h164z" />
    <glyph glyph-name="oe" unicode="&#x153;" 
d="M1254 1563v-912h225v-164h-225v-487h-164v487h-358v-487h-164v487h-225v164h225v912h164v-912h358v912h164z" />
    <glyph glyph-name="Ydieresis" unicode="&#x178;" 
d="M1010 417q70 -14 70 -73v-97q0 -55 -64 -71q125 -12 230 -46q147 -47 249 -130h-1168q85 69 217 119q123 42 262 57q-64 15 -64 71v97q0 58 70 73v140q-70 14 -70 73v97q0 50 60 70q-253 39 -429 240q-93 105 -146.5 239t-53.5 288h1476q0 -166 -60.5 -305.5
t-162.5 -246.5q-168 -176 -406 -215q60 -18 60 -70v-97q0 -58 -70 -73v-140zM358 1458q36 -204 183 -344q159 -150 370 -150q197 0 352 134q162 140 201 360h-1106z" />
    <glyph glyph-name="nonbreakingspace" unicode="&#xa0;" horiz-adv-x="0" 
 />
    <glyph glyph-name="exclamdown" unicode="&#xa1;" 
d="M921 696v-761q0 -30 -50 -37q-4 -1 -12 -1q-40 0 -58 38q-29 52 -45 110q-7 28 -19 58q-5 13 -26 58q-27 56 -54 113q-22 57 -69 105q-22 22 -66 47q-39 20 -65 49q-5 5 -5 10q0 7 11 18q18 15 49 23q25 5 42 7t64 7q27 0 50 6t45 17q33 15 45 42l24 53l14 42
q-52 0 -106 10t-121.5 28t-144.5 60q-38 22 -74 33.5t-72 11.5q-44 0 -80 -17.5t-68 -56.5v110q66 74 151 156q96 93 179 159q77 61 152 99q59 29 119.5 44.5t120.5 15.5q108 0 221 -49q102 -44 220 -135q45 -34 83 -74l77 -78q42 -63 112.5 -90.5t125.5 -63.5v-117
q-83 47 -129 80q-31 22 -82 22q-33 0 -75 -9q-75 -18 -147 -42l-145 -49q-23 -8 -58 -19q-21 -7 -54 -16l401 -628q8 -12 14 -22q23 -36 28 -44q30 -42 72 -42q48 0 74 22t26 69q0 75 -50 100q-23 10 -43 10q-26 0 -44 -19l-51 42q29 50 106 50q66 0 115 -60q42 -52 42 -128
q0 -35 -14.5 -64.5t-43.5 -55.5q-49 -46 -121 -46q-29 0 -55 12.5t-48 35.5t-37 46l-32 51zM930 1250q38 -15 68 -40q89 -75 89 -189q0 -92 -60 -161q-38 -43 -96 -68q50 9 100 25l77 26l82 27l114 28l115 27l-83 77q-38 39 -82 76q-100 83 -215 135q-51 23 -109 37z
M785 782q-68 15 -121 69q-34 36 -51 78t-17 92q0 114 90 189q30 27 72 42q-39 -9 -64 -17t-62 -25q-48 -23 -88.5 -46.5t-78.5 -53.5q-57 -48 -109 -103l-104 -112q23 4 48 4q26 0 56.5 -5.5t83.5 -25.5l109 -41q47 -16 112 -29q41 -8 67.5 -12t56.5 -4zM842 1199
q-76 0 -127 -52.5t-51 -125.5q0 -70 46 -120q53 -58 132 -58q77 0 131 58q47 52 47 120q0 78 -59 131q-52 47 -119 47zM130 1101v99q68 74 150 140q117 92 255 151q74 32 150 51q87 22 162 22q153 0 304 -46q68 -22 143 -60q65 -32 141 -79q24 -15 117 -92q76 -63 139 -89
v-99q-61 18 -181 120q-79 67 -112 90q-74 45 -133 75q-73 38 -141 61.5t-134 33.5t-139 10q-81 0 -151 -16.5t-139 -49.5q-129 -62 -242 -147q-98 -75 -189 -175zM856 683q-7 -26 -12 -42t-14 -40q-13 -41 -50 -75t-93 -46q-16 -2 -40.5 -2h-33.5q-14 0 -25 -0.5t-9 -5.5
q1 -4 14 -13.5t27 -19.5q26 -21 34 -28q20 -17 30.5 -31.5t19.5 -34.5q13 -29 26 -57q17 -32 37 -78q6 -15 20 -53q11 -31 23 -61l46 -121v708z" />
    <glyph glyph-name="cent" unicode="&#xa2;" horiz-adv-x="1351" 
d="M494 -103v182q-99 35 -168 108q-120 125 -120 319h138q0 -146 86 -232q27 -30 64 -49v603q-64 26 -100 49q-67 39 -114 103q-23 33 -35 72t-12 88q0 172 126 276q54 44 135 72v180h88v-159q25 3 47 5t42 2q44 0 98 -10v162h87v-189q46 -17 90 -49q78 -57 119.5 -132.5
t41.5 -171.5h-137q0 67 -31 122t-83 88v-478q41 -18 84.5 -44.5t82.5 -62.5q50 -48 85.5 -120.5t35.5 -168.5q0 -204 -128 -311q-63 -54 -160 -81v-173h-87v156q-50 -5 -96 -5q-20 0 -44 0.5t-47 7.5v-159h-88zM494 980v365q-23 -11 -45 -27q-27 -20 -41 -41.5t-21.5 -55.5
t-7.5 -71q0 -60 32.5 -100.5t82.5 -69.5zM582 1375v-433q15 -6 42 -14t51 -14q47 -13 94 -25v482q-47 12 -104 12q-32 0 -45.5 -1t-37.5 -7zM582 800v-608q47 -11 93 -11h12q48 0 82 7v560l-84 25q-30 7 -50.5 12t-52.5 15zM856 707v-493q35 16 64 42q80 72 80 206
q0 123 -88 205q-23 20 -56 40z" />
    <glyph glyph-name="sterling" unicode="&#xa3;" horiz-adv-x="1351" 
d="M593 530q0 -60 -20 -119t-59 -125l69 3q56 0 105 -20t96 -44l90 -43q48 -19 96 -19q50 0 86.5 12.5t63.5 40.5l67 -151q-71 -65 -215 -65q-59 0 -112 21l-101 44q-20 9 -49 21q-18 7 -52 20q-22 8 -51.5 12t-57.5 4q-73 0 -160.5 -33t-146.5 -89l-79 142q140 83 202 174
q32 50 48.5 102.5t16.5 111.5h-219v139h212q-9 72 -43 131h-169v139h107q-18 68 -18 134q0 177 111 311q126 152 314 152q157 0 277 -113q116 -110 143 -278l-153 -39q-12 108 -87.5 183.5t-179.5 75.5q-125 0 -207 -107q-61 -82 -61 -185q0 -70 29 -134h379v-139h-309
q24 -59 33 -131h276v-139h-272z" />
    <glyph glyph-name="currency" unicode="&#xa4;" horiz-adv-x="1351" 
d="M969 551h-472q0 -72 20 -146q17 -63 49 -126q46 -90 113 -139q76 -55 178 -55q90 0 171.5 81t120.5 158h72v-324h-69q0 43 -13.5 71.5t-34.5 31.5q-11 0 -23 -9l-18 -14q-59 -39 -116.5 -59.5t-112.5 -20.5q-277 0 -433 214q-99 135 -129 337h-142l55 135h74l-2 65l2 64
h-129l56 135h87q15 98 51.5 190.5t100.5 170.5q155 186 409 186q141 0 252 -75q15 -11 29 -11q8 0 13 4q11 6 17.5 27.5t6.5 58.5h69v-323h-69q-39 102 -105.5 168.5t-189.5 66.5q-189 0 -280 -176q-32 -63 -52 -139q-16 -68 -25 -148h634l-56 -135h-586l-2 -65l1 -64h534z
" />
    <glyph glyph-name="currency" unicode="&#x20ac;" horiz-adv-x="1351" 
d="M969 551h-472q0 -72 20 -146q17 -63 49 -126q46 -90 113 -139q76 -55 178 -55q90 0 171.5 81t120.5 158h72v-324h-69q0 43 -13.5 71.5t-34.5 31.5q-11 0 -23 -9l-18 -14q-59 -39 -116.5 -59.5t-112.5 -20.5q-277 0 -433 214q-99 135 -129 337h-142l55 135h74l-2 65l2 64
h-129l56 135h87q15 98 51.5 190.5t100.5 170.5q155 186 409 186q141 0 252 -75q15 -11 29 -11q8 0 13 4q11 6 17.5 27.5t6.5 58.5h69v-323h-69q-39 102 -105.5 168.5t-189.5 66.5q-189 0 -280 -176q-32 -63 -52 -139q-16 -68 -25 -148h634l-56 -135h-586l-2 -65l1 -64h534z
" />
    <glyph glyph-name="yen" unicode="&#xa5;" horiz-adv-x="1351" 
d="M240 475h361v147h-361v148h290l-339 732h168l317 -683l316 683h168l-339 -732h290v-148h-361v-147h361v-148h-361v-327h-149v327h-361v148z" />
    <glyph glyph-name="brokenbar" unicode="&#xa6;" 
d="M594 139h633v727h-633v-727zM426 1190h166q0 49 12 82q18 51 18 106q0 24 -2 41t-9 40q-6 25 -22 52l52 -44q37 -39 59 -82q24 -53 24 -146l-2 -49h17q34 71 34 129q0 36 -9.5 69t-9.5 70q0 20 5 40.5t18.5 51t44.5 73.5l37 45l-12 -58q-7 -31 -10 -55v-64q0 -30 17 -84
q14 -47 41 -89q14 -25 22 -49l12 -33q46 66 46 121q0 33 -9.5 64.5t-9.5 66.5q0 40 13 63q22 40 56 68l29 15l-10 -22q-6 -21 -7.5 -35t-1.5 -38q0 -29 5 -56.5t21 -67.5q27 -68 27 -110q0 -61 -25 -115h34v1q16 29 37 83q4 10 13 46q15 56 16 61q16 85 16 142v10
q-1 21 -2 29q12 -15 21 -36q16 -34 25 -87t9 -120q0 -79 -14 -129h177q-66 -60 -149.5 -110.5t-172.5 -78.5h527v-135h-236v-727h82v-139h-1071v139h81v727h-235v135h525q-88 27 -168 77t-152 112zM911 538q51 0 51 -51t-51 -51t-51 51t51 51zM753 812q51 0 51 -50
q0 -51 -51 -51t-51 51q0 50 51 50zM911 812q51 0 51 -50q0 -51 -51 -51t-51 51q0 50 51 50zM1068 812q51 0 51 -50q0 -51 -51 -51t-51 51q0 50 51 50zM832 675q51 0 51 -51t-51 -51t-51 51t51 51zM989 675q51 0 51 -51t-51 -51t-51 51t51 51z" />
    <glyph glyph-name="section" unicode="&#xa7;" 
d="M1279 1055q-86 -64 -196 -94h332v-154h-182v-807h-155v807h-336v-807h-155v807h-181v154h312q-61 16 -107.5 36t-84.5 50.5t-61 64.5q-27 41 -27 81q0 50 22.5 88.5t57.5 81.5l79 88q41 43 55 86.5t14 82.5q0 24 -6 47l3 1q54 -32 78 -79q14 -31 14 -64q0 -26 -7 -50
q-10 -30 -25 -57l-32 -55l-34 -65q-13 -32 -13 -67q0 -28 2.5 -42.5t11.5 -30.5q6 -13 32 -29.5t52 -26.5q34 -14 72 -18t92 -4q45 0 80 4t68 15q47 12 82.5 42.5t35.5 85.5q0 39 -21 75l-37 70l-36 67q-19 38 -19 79q0 19 7.5 41t23.5 47q24 37 57 62l4 -1q-5 -30 -5 -51
q0 -34 11 -67q17 -48 54 -87l79 -79q35 -38 65 -80q27 -39 27 -88q0 -84 -103 -160z" />
    <glyph glyph-name="dieresis" unicode="&#xa8;" 
d="M130 516h446l335 -375l328 375h453v-174h-376l-405 -445l-405 445h-376v174zM911 1564l136 -227l-136 -151v-231l-136 231l136 141v237zM314 1103h266l331 -375l332 375h264v-174h-187l-409 -448l-401 448h-196v174z" />
    <glyph glyph-name="copyright" unicode="&#xa9;" horiz-adv-x="1277" 
d="M505 1488q145 0 237 -113l-104 -46q-54 78 -133 78q-83 0 -135 -83q-20 -33 -30 -67.5t-10 -77.5q0 -82 40 -144q51 -83 135 -83q77 0 133 78l104 -46q-92 -113 -237 -113q-117 0 -206 80q-101 92 -101 228q0 118 80 207q90 102 227 102zM489 1589q-194 0 -316 -149
q-94 -115 -94 -261q0 -163 114 -282q121 -127 296 -127q181 0 303 134q106 118 106 275q0 147 -93 261q-125 149 -316 149zM489 1668q214 0 361 -160q64 -70 95.5 -151.5t31.5 -177.5q0 -196 -135 -336q-144 -152 -353 -152q-202 0 -345.5 143.5t-143.5 344.5q0 188 128 329
q145 160 361 160z" />
    <glyph glyph-name="ordfeminine" unicode="&#xaa;" 
d="M243 229l139 140q-82 91 -142 179q-35 51 -62.5 103t-47.5 105q-38 105 -38 230q0 141 86 208q42 31 87.5 46.5t97.5 15.5q103 0 201 -57.5t134 -172.5q36 113 135.5 172.5t202.5 59.5q99 0 180 -58l67 66l-38 145l251 251l37 -148l-180 -181l61 -63l185 188l152 -35
l-243 -254l-159 35l-74 -74q31 -60 31 -135q0 -238 -150 -450q-146 -208 -458 -492q-145 132 -255 249l-139 -139q12 -10 25.5 -18.5t31.5 -16.5q39 -18 79 -24l-370 -104l123 363q0 -20 4.5 -37t14.5 -40q7 -18 13 -29t18 -28zM700 785q-16 38 -74.5 118t-131.5 127
q-57 36 -106 36q-36 0 -70 -20q-59 -39 -59 -121q0 -38 14 -89q21 -75 70 -153q25 -40 44 -66.5t30 -38.5l119 -153q77 -100 162 -181q87 75 173 183q83 104 127 154q23 25 62.5 94.5t65.5 149.5q15 54 15 99q0 34 -9 64l-123 -123q41 -48 41 -75q0 -7 -4 -13.5t-14 -6.5
t-29 8q-32 15 -71.5 50.5t-62.5 72.5q-15 26 -15 40q0 6 4 13t16 7q21 0 69 -33l126 126q-18 8 -34.5 11t-37.5 3q-62 0 -127 -42q-72 -47 -114.5 -127.5t-55.5 -113.5z" />
    <glyph glyph-name="guillemotleft" unicode="&#xab;" 
d="M1064 1408l-156 -616h5q107 0 175 40.5t119 114.5t77 206.5t50.5 212t60.5 139t126 59.5t130.5 -67.5t40.5 -157.5q-70 73 -114 73q-54 0 -81.5 -97.5t-54.5 -235t-93 -233.5q-85 -122 -204 -175q-54 -24 -121.5 -34t-156.5 -10l-159 -627h-182l168 662q-66 26 -116.5 72
t-110.5 118q-54 67 -80 201q-12 70 -24 124t-29 109q-30 125 -91 125q-45 0 -113 -75q0 98 42.5 163t132.5 65q89 0 125 -66.5t60 -141.5q32 -106 51 -215t75 -196q44 -72 121 -113l146 576h181z" />
    <glyph glyph-name="logicalnot" unicode="&#xac;" 
d="M429 513h206l188 -305v671q-128 27 -218 132q-94 112 -94 258q0 162 117 280.5t282 118.5t282 -117t117 -282q0 -153 -99 -264q-87 -99 -213 -126v-671l189 305h205l300 -513h-205l-198 348l-216 -348h-324l-216 348l-197 -348h-205zM910 1502q-96 0 -164.5 -68.5
t-68.5 -164.5q0 -97 68.5 -165.5t164.5 -68.5q102 0 173 77q61 67 61 157q0 93 -68.5 163t-165.5 70z" />
    <glyph glyph-name="minus" unicode="&#xad;" 
d="M1501 1138v-1138h-176l-813 976v-840q73 -24 127 -84q69 -80 69 -184q0 -118 -83 -201t-200 -83q-123 0 -209 93q-74 83 -74 191q0 94 54 166t142 102v1108h174l815 -974v868q-51 -9 -90 -28q-49 -21 -90 -54l267 507l266 -507q-41 33 -94 56q-18 8 -35 13t-50 13z
M425 27q-66 0 -113 -46.5t-47 -112.5q0 -67 47 -114t113 -47t113.5 47t47.5 114q0 65 -48.5 112t-112.5 47z" />
    <glyph glyph-name="registered" unicode="&#xae;" horiz-adv-x="1277" 
d="M489 1668q201 0 344.5 -144t143.5 -345q0 -189 -127 -328q-146 -160 -361 -160t-362 160q-127 139 -127 328q0 191 135 337q143 152 354 152zM489 1589q-181 0 -303 -135q-107 -118 -107 -275q0 -156 107 -275q122 -134 303 -134q193 0 315 149q46 56 70 121t24 139
q0 163 -113 283q-124 127 -296 127zM391 1408v-185h123q42 0 71.5 24.5t29.5 67.5q0 40 -28 68q-30 25 -73 25h-123zM535 1152l190 -272h-119l-155 272h-60v-272h-107v598h261q75 0 127 -47.5t52 -114.5q0 -72 -59 -121q-26 -21 -57.5 -32t-72.5 -11z" />
    <glyph glyph-name="macron" unicode="&#xaf;" 
d="M1348 1052q52 -53 52 -102q0 -8 -1 -17q-2 -7 -3 -10q29 -46 29 -97q0 -80 -72 -149q-64 -61 -172 -100q179 -68 179 -182q0 -120 -194 -187q128 -57 128 -145t-138 -147q116 -48 137 -123q-65 33 -135 50q-81 20 -171 20v-97h-131v97q-92 0 -166 -18t-138 -52
q15 75 135 123q-138 57 -138 147q0 87 128 145q-194 66 -194 187q0 113 179 182q-108 38 -172 100q-72 68 -72 149q0 53 35 106q-2 12 -2 19q0 48 52 101q41 41 96 59q29 8 50 8q22 0 40 -9l-118 -119l150 47q-6 -48 -50 -90q-47 -48 -107 -63q-9 -16 -12.5 -29t-3.5 -30
q0 -86 116 -148q80 -42 192 -54v629q-90 -33 -193 -33q-157 0 -291 65q-56 27 -112 64t-116 82q17 -2 40 -3t42 -1q49 0 100 8q80 13 137 45q51 28 141 62q63 22 97 22q21 0 29 -9.5t8 -22.5q0 -9 -4.5 -23t-4.5 -24q0 -15 10 -25q15 -14 40 -19q7 -2 26 -2q23 0 55 6
q-16 21 -16 45q0 30 22 52t55 22q29 0 52 -19q25 -25 25 -55q0 -25 -16 -45q18 -4 31.5 -5t30.5 -1q38 0 59 21q9 9 9 24q0 4 -1.5 11t-2.5 11q-4 12 -4 24q0 14 8 24t29 10q34 0 97 -22q77 -27 124.5 -54.5t113.5 -42.5q45 -11 115 -11h5q35 0 81 4l-125 -90
q-57 -40 -117 -69q-121 -59 -256 -59q-103 0 -192 33v-629q105 9 186 51q122 60 122 151q0 31 -17 62q-53 15 -96.5 58t-51.5 92l151 -47l-119 119q18 9 40 9q20 0 49 -8q55 -17 97 -59zM987 532v-273q104 9 173 47t69 89q0 49 -69 87t-173 50zM987 166v-204q76 9 125 38
q51 27 51 63q0 35 -50.5 64t-125.5 39zM856 -38v204q-76 -9 -126 -38t-50 -65t48 -62.5t128 -38.5zM856 259v273q-103 -10 -172.5 -48.5t-69.5 -88.5t68 -87.5t174 -48.5z" />
    <glyph glyph-name="degree" unicode="&#xb0;" 
d="M505 675h356q18 109 95 192q89 96 219 122v319q-44 -8 -84 -26.5t-70 -42.5l225 428l226 -428q-34 26 -81 47q-31 13 -73 22v-319q109 -20 192 -95q129 -117 129 -291q0 -149 -102 -263q-91 -99 -219 -123v-275q40 8 73 22q43 17 81 46l-225 -426l-226 426q35 -25 71 -42
q30 -13 83 -26v275q-135 24 -225 130q-68 78 -89 185h-679q79 47 146.5 139.5t116.5 222.5q37 105 54 200.5t17 184.5q0 64 -17.5 116.5t-50.5 94.5q-39 47 -94 72q-42 18 -87 18q-40 0 -85 -19q6 7 17.5 16.5t26.5 18.5q7 5 21 12.5t27 14.5q45 22 81.5 33.5t72.5 11.5
q79 0 146 -64q59 -60 87 -161q21 -78 21 -169q0 -44 -5 -90.5t-15 -98.5q-26 -131 -77 -250q-17 -41 -35 -77t-45 -83zM1247 853q-117 0 -193 -91q-56 -70 -56 -159q0 -96 64 -167q76 -82 185 -82q100 0 174.5 73t74.5 176q0 107 -82 185q-73 65 -167 65zM1247 689
q31 0 57 -22q28 -28 28 -64q0 -34 -22 -57q-28 -28 -63 -28q-37 0 -64 28q-22 25 -22 57q0 31 20 55q25 31 66 31z" />
    <glyph glyph-name="plusminus" unicode="&#xb1;" horiz-adv-x="1562" 
d="M201 217h1160v-157h-1160v157zM201 1002h501v502h158v-502h501v-157h-501v-502h-158v502h-501v157z" />
    <glyph glyph-name="twosuperior" unicode="&#xb2;" 
d="M304 1456v-678h191v678h174v-678h191v678h172v-678h193v678h143v-1112l323 325v-237l-322 -324h-144v496h-1095v852h174z" />
    <glyph glyph-name="threesuperior" unicode="&#xb3;" 
d="M1111 0v222h-161v142h161v215q-108 17 -200 83q-90 -65 -200 -83v-215h161v-142h-161v-222h-168v222h-180v142h180v215q-169 27 -286 159q-126 141 -126 330q0 204 145 350t351 146q155 0 284 -90q126 90 284 90q204 0 350 -146t146 -350q0 -187 -126 -330
q-117 -131 -286 -159v-215h187v-142h-187v-222h-168zM1016 1374q106 -133 106 -306q0 -171 -106 -307q84 -49 179 -49q144 0 249.5 104.5t105.5 251.5q0 140 -98 245q-105 110 -257 110q-96 0 -179 -49zM806 761q-106 135 -106 307q0 173 106 306q-86 49 -179 49
q-156 0 -263 -117q-92 -103 -92 -238q0 -138 92 -239q107 -117 263 -117q94 0 179 49zM911 855q71 97 71 213t-71 212q-71 -97 -71 -212q0 -118 71 -213z" />
    <glyph glyph-name="acute" unicode="&#xb4;" 
d="M229 1049h178q76 212 258 352q213 163 477 163q154 0 293 -58t242 -155l-81 -167q-83 92 -201 149t-253 57q-187 0 -343 -107q-132 -90 -203 -234h932l-85 -174h-902q-3 -21 -5 -44t-2 -49q0 -43 1.5 -58.5t6.5 -41.5h807l-85 -173h-666q78 -154 221 -243
q147 -93 323 -93q225 0 399 150v-214q-185 -109 -399 -109q-268 0 -474 160q-180 136 -259 349h-265l85 173h137q-3 23 -5 47.5t-2 52.5q0 48 6 93h-221z" />
    <glyph glyph-name="mu" unicode="&#xb5;" 
d="M1180 330q87 -54 141 -145t54 -198q0 -167 -118 -285t-285 -118q-178 0 -297 132q-105 114 -105 271q0 108 53.5 198.5t140.5 144.5q-67 42 -115 106.5t-68 142.5h122q19 -57 66 -104q56 -59 137 -78v332q-79 24 -144 76q-111 82 -160 214h-162l52 107h84l-4 61l3 58
h-135l52 107h109q48 132 159 216q65 50 136.5 75t156.5 25q189 0 329 -131l-50 -102q-113 126 -279 126q-115 0 -211 -65q-79 -56 -125 -144h573l-52 -107h-554l-5 -58q0 -13 1 -28.5t4 -32.5h496l-52 -107h-409q45 -92 135.5 -149t198.5 -57q139 0 246 92v-131
q-115 -68 -246 -68h-14v-309q68 15 122.5 64t79.5 118h122q-21 -88 -79 -159q-46 -55 -104 -90zM972 272q-116 0 -201 -85t-85 -200q0 -116 84 -201t202 -85q116 0 201 83.5t85 202.5q0 125 -94 210q-81 75 -192 75z" />
    <glyph glyph-name="paragraph" unicode="&#xb6;" horiz-adv-x="1550" 
d="M1001 -103v1612h-224v-1612h-168v958q-82 0 -153 33t-132 95q-117 117 -117 278q0 167 127.5 287t305.5 120h703v-159h-174v-1612h-168z" />
    <glyph glyph-name="periodcentered" unicode="&#xb7;" 
d="M910 1375l-268 -585q126 54 268 54q136 0 268 -54zM911 455q37 0 65 -25q32 -29 32 -72q0 -38 -25 -66q-30 -32 -72 -32q-41 0 -69.5 29t-28.5 69q0 41 32 72q28 25 66 25zM1244 647q-155 93 -334 93q-176 0 -334 -93l-295 -643h1258zM910 1631l399 -867l398 -867h-1592
l397 867zM910 604q144 0 263.5 -66.5t202.5 -178.5q-79 -110 -204 -177.5t-262 -67.5q-143 0 -265 66t-201 179q75 111 199.5 178t266.5 67zM913 505q-116 0 -211 -46q-74 -36 -140 -104q72 -71 156.5 -106.5t187.5 -35.5q112 0 207 45q41 19 74.5 44t69.5 61
q-68 67 -155.5 104.5t-188.5 37.5z" />
    <glyph glyph-name="periodcentered" unicode="&#x2219;" 
d="M910 1375l-268 -585q126 54 268 54q136 0 268 -54zM911 455q37 0 65 -25q32 -29 32 -72q0 -38 -25 -66q-30 -32 -72 -32q-41 0 -69.5 29t-28.5 69q0 41 32 72q28 25 66 25zM1244 647q-155 93 -334 93q-176 0 -334 -93l-295 -643h1258zM910 1631l399 -867l398 -867h-1592
l397 867zM910 604q144 0 263.5 -66.5t202.5 -178.5q-79 -110 -204 -177.5t-262 -67.5q-143 0 -265 66t-201 179q75 111 199.5 178t266.5 67zM913 505q-116 0 -211 -46q-74 -36 -140 -104q72 -71 156.5 -106.5t187.5 -35.5q112 0 207 45q41 19 74.5 44t69.5 61
q-68 67 -155.5 104.5t-188.5 37.5z" />
    <glyph glyph-name="cedilla" unicode="&#xb8;" 
d="M1588 326h-407l36 -232h422zM1069 326h-317l-24 -232h365zM1022 1352l21 -127h78l-28 127h-71zM1053 1141l15 -94h144l-20 94h-139zM1082 960l26 -166h216l-37 166h-205zM1122 700l44 -280h271l-62 280h-253zM1059 420l-29 280h-239l-29 -280h297zM1020 794l-18 166h-184
l-17 -166h219zM994 1047l-10 94l-147 -1l-10 -93h167zM975 1225l-13 127h-103l-13 -127h129zM640 326h-411l-52 -232h427zM801 1352h-61l-28 -127h69zM768 1140h-109l-21 -93h115zM740 960h-188l-38 -166h199zM699 700h-262l-57 -280h275zM1179 1438l56 -213h52l39 -178h56
l56 -253h35l80 -374h127l100 -420h-1739l94 420h122l83 374h60l57 253h67l40 178h48l56 213h511z" />
    <glyph glyph-name="onesuperior" unicode="&#xb9;" 
d="M975 1514q27 -9 57.5 -15.5t55.5 -6.5q-18 -6 -30 -23.5t-28 -30.5q20 -36 34.5 -79t27.5 -101q9 -46 14 -96t5 -102q141 18 248 61q163 63 190 162q4 18 5 29v8q0 27 -10 53q-34 -20 -82 -29q-10 -2 -23 -3t-24 -1q-20 0 -40 3q-71 12 -80 55q-1 3 -1 6.5v4.5
q0 33 48 63q35 20 87 31q23 3 54 3h6q11 0 24 -2q50 -8 72 -34q71 0 111 20q0 -22 -20 -41q-19 -16 -35 -44q46 -66 46 -124l-3 -33v-1074l-75 50v856q-5 -4 -23.5 -16t-30.5 -21v-782l-67 45v705q-13 -5 -23 -9t-31 -14v-646l-67 45v579l-55 -16v-526l-67 44v467l-54 -10
v-420l-62 41v370l-30 -3q-14 -97 -46 -181q-36 -88 -85 -146l280 -228l-70 3l132 -130l122 46l74 -46v-55l-64 38l-79 -21l159 -80l-56 -87l-24 67l-105 54v-156l-117 -27l42 68v132l-121 -40v-65l-64 59v58l164 38l-137 108l-6 -62l-104 110l5 -206q0 -75 49 -123
q36 -37 114 -37q-26 -50 -83 -50q-27 0 -51.5 8t-51.5 27l-82 -101l-79 101q-50 -36 -108 -36q-65 0 -90 47q78 0 115 38q24 26 36.5 56t12.5 65l5 215l-107 -114l-6 61l-135 -107l165 -38v-58l-64 -59v65l-122 40v-132l43 -68l-117 27v156l-106 -54l-24 -67l-55 87l159 80
l-80 21l-63 -38v55l74 46l122 -46l131 130l-80 -1l301 235q-45 58 -75 142t-30 176l-29 4v-356l-67 -44v409q-17 3 -33 6t-21 5v-456l-64 -41v511l-54 16v-563l-67 -44v630q-6 2 -23.5 9.5t-30.5 13.5v-688l-69 -45v770q-13 7 -27 17t-27 21v-845l-75 -49v1035l-3 25l-1 27
q0 35 13.5 68.5t40.5 68.5q-7 9 -15.5 19t-16.5 17q-14 14 -14 36q19 -9 48 -14.5t62 -5.5q18 23 67 33q11 2 21 3t24 1q11 0 17.5 -0.5t27.5 -3.5q46 -9 75 -25q60 -32 60 -70q0 -7 -1 -10q-9 -41 -81 -55q-20 -3 -41 -3q-24 0 -45 4q-51 9 -86 30q-17 -37 -17 -69
q0 -13 3 -27q15 -89 161 -152q111 -47 290 -68q12 60 46 114q30 48 77 89q18 16 27.5 35.5t9.5 46.5q-13 -5 -29 -7t-34 -2q-13 0 -25 1.5t-28 9.5q-25 9 -43 27q18 -6 41 -6q12 0 19 1q49 5 79 26q10 7 10 16q0 14 -30 32l-149 1q-9 17 -12.5 27.5t-3.5 23.5q0 15 8 33
q22 38 75 38q23 0 42.5 -5t43.5 -18q27 6 50 6q13 0 19 -1q34 -6 63 -32zM870 1512l8 -63l53 27l-35 8z" />
    <glyph glyph-name="ordmasculine" unicode="&#xba;" 
d="M398 1621l191 -363q-28 21 -65 38l-51 17v-99q0 -119 58 -210q76 -121 193 -121h118v432q-31 -7 -64.5 -22t-57.5 -35l191 363l191 -363q-27 21 -60 36l-54 19v-430h111q104 0 177.5 97t73.5 234v99q-29 -6 -56 -18t-61 -37l191 363l191 -363q-27 21 -60 36l-54 19v-93
q0 -202 -118.5 -345t-284.5 -143h-110v-444q153 15 287 91q149 83 248 223q3 -20 5 -42t2 -46q0 -136 -54.5 -254t-148.5 -203q-178 -160 -416 -160q-254 0 -436.5 181t-182.5 436q0 49 7 88q92 -132 234.5 -215.5t308.5 -98.5v444h-117q-177 0 -298 160q-105 140 -105 328
v93l-55 -18q-34 -16 -60 -37z" />
    <glyph glyph-name="guillemotright" unicode="&#xbb;" 
d="M911 1564q150 0 285 -54.5t239 -148.5q117 -108 186.5 -259t69.5 -320q0 -172 -69 -320.5t-187 -257.5q-53 -48 -114.5 -86.5t-124.5 -63.5q-137 -54 -285 -54q-171 0 -321 69t-257 188q-93 102 -148 237.5t-55 287.5q0 169 64.5 313t178.5 253q103 97 243 156.5
t295 59.5zM911 1390q-251 0 -429 -178t-178 -430q0 -235 158 -408q84 -94 199.5 -147t249.5 -53q233 0 407 159q94 84 147 200.5t53 248.5q0 251 -178.5 429.5t-428.5 178.5zM633 1027q18 3 34 3q50 0 97 -29q59 -40 74 -111q3 -18 3 -35q0 -52 -29 -96q-40 -59 -110 -74
q-16 -4 -37 -4q-52 0 -101 35q-54 39 -67 106q-4 16 -4 36q0 44 26 87q39 65 114 82zM1034 1107q18 3 35 3q58 0 107.5 -38t62.5 -101q3 -18 3 -35q0 -52 -29 -96q-41 -59 -110 -74q-17 -4 -39 -4q-57 0 -105.5 39.5t-60.5 100.5q-3 18 -3 35q0 42 21 81q35 69 118 89z
M906 706q18 3 35 3q51 0 95 -29q59 -39 75 -111q3 -18 3 -35q0 -55 -34 -102q-40 -53 -106 -68q-17 -4 -38 -4q-57 0 -105.5 39.5t-60.5 101.5q-2 9 -3 18t-1 17q0 45 25 88q39 66 115 82z" />
    <glyph glyph-name="onequarter" unicode="&#xbc;" 
d="M1369 1117l-551 -554q104 -83 238 -127q111 -37 226 -37q50 0 106 8q-20 -27 -53 -62q-95 -95 -223 -137q-87 -27 -177 -27q-35 0 -78 5q-160 20 -294 120l-308 -308l-123 122l307 309q-62 81 -93 162q-34 89 -34 184q0 131 38 236t124 192q29 27 62 53q-7 -49 -7 -104
q0 -100 26 -191q42 -155 140 -275l550 553q-59 40 -110 63q-75 31 -149 40l704 222l-216 -706q-9 74 -42 149q-21 50 -63 110z" />
    <glyph glyph-name="onehalf" unicode="&#xbd;" 
d="M999 581v-581h-175v581q-119 -30 -198.5 -129.5t-79.5 -225.5h-174q0 224 158.5 382t381.5 158q221 0 380 -159t159 -381h-174q0 126 -80 227q-76 96 -198 128zM224 1424l161 68l138 -329l-161 -67zM1019 1564v-356h-174v356h174zM1595 1423l-138 -329l-160 67l138 329z
M911 1082q105 0 200.5 -14t192.5 -45q190 -59 348 -167l-97 -146q-139 94 -304.5 145.5t-339.5 51.5q-179 0 -340.5 -50.5t-303.5 -145.5l-97 146q158 106 347 166q94 29 192 44t202 15z" />
    <glyph glyph-name="threequarters" unicode="&#xbe;" 
d="M958 1179v-238q17 -5 31 -13l168 169l19 179l359 131l-131 -359l-179 -19l-169 -168l13 -31h238l140 114l347 -162l-347 -161l-140 113h-238l-13 -31l169 -168l179 -18l131 -360l-359 131l-19 179l-168 169l-31 -13v-238l113 -140l-161 -346l-161 346l113 140v238
q-16 3 -30 13l-169 -169l-18 -179l-360 -131l131 360l179 18l169 168l-13 31h-238l-140 -113l-346 161l346 162l140 -114h238l13 31l-168 168l-180 19l-131 359l360 -131l18 -179l169 -169q7 5 30 13v238l-113 140l161 347l161 -347z" />
    <glyph glyph-name="questiondown" unicode="&#xbf;" 
d="M828 537l-11 10l-16 22l-61 48l-27 95l-50 34q-15 15 -17.5 35t-2.5 30.5v16.5v40l-17 99l-44 62q-23 36 -23 73l-197 99l218 77q13 36 28 60l-69 205l195 -97q47 20 117 29l72 193l88 -193q57 -9 90 -21l212 105l-85 -201q18 -31 30 -69l202 -85l-185 -84q0 -42 -16 -72
q-7 -17 -21 -38q-6 -10 -27 -38l-19 -103v-18q0 -4 -1 -13t-1 -30v-6q-2 -15 -2 -19q-3 -26 -20 -39l-57 -31l-25 -94l-65 -51l-14 -23l-15 -15v-260h35v-110h-35v-63h35v-109h-35v-63h35v-110h-35v-62h35v-111h-35v-58h-164v58h-33v111h33v62h-33v110h33v63h-33v109h33v63
h-33v110h33v267zM792 802l-145 64l104 -101l6 -60q5 -34 30 -54q20 -18 55 -27q16 -4 33 -6t41 -2q37 0 60.5 3.5t51.5 22.5q7 8 14 18q12 17 18 36q10 26 10 65l119 106l-144 -63l-20 -49q-20 -13 -109 -13q-91 0 -106 14zM763 1134q-37 0 -63 -27t-26 -64t26 -63.5
t63 -26.5q39 0 66 30q24 24 24 60q0 35 -27 65q-26 26 -63 26zM1072 1134q-37 0 -63 -27t-26 -64t23 -60q24 -30 66 -30q37 0 64 27q25 27 25 63q0 39 -29 68q-28 23 -60 23zM931 867l17 -5q12 0 22.5 7.5t10.5 21.5q0 12 -4 20l-16 22q-17 18 -19 22l-11 16l-8 15l-2 4
l4 -53zM914 990l-2 -4l-8 -15l-11 -16l-19 -22l-15 -21q-3 -7 -5 -20q0 -14 10 -21q9 -9 23 -9q8 0 17 5l6 70z" />
    <glyph glyph-name="Agrave" unicode="&#xc0;" 
d="M410 687h439v347h-173v122h173v248h125v-248h173v-122h-173v-485q73 79 203 79q141 0 233 -116t92 -291q0 -74 -29 -158.5t-61 -131.5q-24 -33 -24 -84q0 -25 6 -55q19 -93 79 -93q61 0 78 44q9 22 14.5 47t5.5 46l121 48q0 -122 -49 -202q-31 -49 -66 -73t-100 -24
q-66 0 -124 48.5t-76 118.5q-13 49 -13 97q0 101 61 189q25 36 41 83t16 100q0 110 -61 188t-144 78q-81 0 -142.5 -52.5t-60.5 -154.5v-279h-125v563h-719q69 45 129 133.5t106 218.5q34 103 48.5 195t14.5 179q0 66 -16.5 117t-49.5 95q-65 80 -153 80q-22 0 -39 -4
t-40 -15q7 10 33 29l39 26q76 50 147 50q82 0 145 -79q45 -60 63 -141q9 -40 14 -79.5t5 -80.5q0 -110 -24 -221q-13 -58 -27 -106.5t-35 -102.5q-14 -39 -34.5 -83t-45.5 -88z" />
    <glyph glyph-name="Aacute" unicode="&#xc1;" 
d="M1691 1564q-57 -49 -97.5 -102t-65.5 -114q-38 -92 -38 -209q0 -111 40 -211q25 -60 64 -113t93 -101h-190q-33 42 -59 89.5t-42.5 93.5t-25.5 87t-13 87h-101q-21 -104 -95.5 -179.5t-177.5 -96.5v-312q162 21 282 157v-153q-130 -99 -282 -116v-62q152 -17 282 -112
v-154q-116 133 -282 157v-200h-144v200q-161 -22 -277 -153v152q123 92 277 110v64q-151 16 -277 111v152q117 -131 277 -153v312q-102 21 -176 95.5t-97 180.5h-100q-9 -96 -45.5 -187.5t-95.5 -169.5h-190q103 90 153 206q21 49 32.5 105t11.5 111q0 123 -46 224
q-49 113 -156 204h192q65 -85 101 -171.5t45 -184.5h98q19 92 79 161q105 122 266 122q148 0 254 -109q70 -74 91 -174h102q5 56 15.5 102t30.5 94q16 39 42 82q22 36 54 78h191zM911 932q86 0 146.5 60.5t60.5 146.5q0 80 -59 143.5t-148 63.5q-95 0 -156 -71
q-51 -59 -51 -136q0 -86 60 -146.5t147 -60.5z" />
    <glyph glyph-name="Acircumflex" unicode="&#xc2;" 
d="M986 1166v-230q157 18 280 126v-169q-131 -82 -280 -97v-33q151 -15 280 -93v-169q-119 104 -280 127v-456q49 9 88 25q56 24 96 56l-259 -492l-260 492q38 -29 94 -55q35 -15 91 -26v456q-156 -18 -281 -124v168q124 74 281 92v34q-152 15 -281 93v168
q121 -105 281 -124v217q0 107 -75 181q-64 64 -150 64q-99 0 -165 -81q-59 -73 -59 -165q0 -112 79 -187l-88 -137q-143 123 -143 324q0 160 98 277q112 136 278 136q186 0 300 -165q111 165 300 165q154 0 264.5 -121.5t110.5 -291.5q0 -200 -143 -324l-88 137
q79 74 79 187q0 114 -82 189q-60 57 -141 57q-87 0 -154 -68q-34 -34 -52.5 -74.5t-18.5 -88.5z" />
    <glyph glyph-name="Atilde" unicode="&#xc3;" 
d="M1153 400q-54 0 -92.5 38.5t-38.5 92.5q0 51 37.5 90.5t93.5 39.5q54 0 92.5 -38.5t38.5 -91.5q0 -54 -38.5 -92.5t-92.5 -38.5zM426 616h195q24 173 150 299.5t302 153.5v162h-211v133h211v200h160v-200h211v-133h-211v-162q169 -26 294 -145q164 -159 164 -386
q0 -231 -167 -389q-158 -149 -371 -149q-197 0 -349 129q-158 134 -185 344h-489q36 41 73.5 85t64.5 82q62 88 103 196t58 226q8 67 8 122q0 22 -1.5 45t-5.5 61q-15 92 -63 155q-34 40 -71 60.5t-80 20.5t-86 -20q11 15 44 37l41 27q77 45 141 45q78 0 140 -73
q44 -54 67.5 -136t23.5 -188q0 -85 -15 -177q-24 -135 -73 -264q-30 -81 -73 -161zM1153 145q159 0 272.5 113t113.5 273q0 168 -127 285q-111 100 -259 100q-160 0 -273 -114t-113 -271q0 -151 101 -259q113 -127 285 -127z" />
    <glyph glyph-name="Adieresis" unicode="&#xc4;" 
d="M1230 1401v-184h168q-9 68 -56 122q-47 50 -112 62zM492 650h638v221q-121 27 -193 127q-60 83 -60 187q0 74 28.5 135t79.5 106q-46 42 -76 104q-15 32 -23.5 68t-8.5 70h120q0 -27 4 -47t16 -44q24 -57 69 -90q56 21 113 21q54 0 113 -21q42 32 68 84q11 24 18 48t7 49
h120q0 -36 -9 -70.5t-27 -71.5q-30 -60 -76 -100q44 -40 76 -99q33 -68 33 -142q0 -116 -73.5 -203t-177.5 -111v-221h420v-147h-420v-362h262v-141h-666v141h263v362h-1000q64 62 89 87q49 49 78 84q37 43 68.5 93t59.5 108q51 117 69 223q12 68 12 130q0 34 -1.5 52.5
t-8.5 58.5q-18 97 -83 162q-38 39 -83.5 59t-100.5 20q-53 0 -99 -20q11 14 53 38l49 27q89 43 172 43q135 0 214 -122q38 -59 55 -136t17 -145q0 -88 -20 -181q-26 -131 -88 -270q-40 -84 -90 -164zM1398 1154h-168v-184q66 9 111.5 61t56.5 123zM1168 970v184h-168
q9 -65 51 -116q46 -56 117 -68zM1000 1217h168v184q-64 -11 -110 -61.5t-58 -122.5z" />
    <glyph glyph-name="Aring" unicode="&#xc5;" 
d="M982 507q99 0 205 -25q93 -22 197 -65q165 -68 307 -178v-234q-149 152 -352 241t-426 89q-226 0 -433 -90q-195 -85 -350 -245v234q150 120 329 190q97 38 186 59q103 24 195 24q-91 23 -145 83q-45 49 -61 122h-245q6 -33 20 -62q16 -40 41 -69l-382 201l382 201
q-23 -28 -41 -68q-6 -14 -10 -27t-10 -36h245q15 76 66.5 128.5t139.5 76.5q-101 0 -200 24t-203 68q-168 68 -307 181v235q75 -80 162 -141t188 -105q209 -91 433 -91t429 89q196 84 349 242v-234q-150 -117 -329 -187q-98 -38 -192 -59.5t-188 -21.5q83 -23 133.5 -74
t69.5 -131h245q-8 37 -22 67t-39 64l384 -201l-384 -201q26 33 45 77l16 54h-245q-15 -71 -60 -121q-53 -60 -143 -84zM911 924q-57 0 -99.5 -41.5t-42.5 -100.5q0 -63 46 -105q40 -37 96 -37q57 0 99 40.5t42 101.5q0 58 -41.5 100t-99.5 42z" />
    <glyph glyph-name="AE" unicode="&#xc6;" 
d="M624 1418v-173h157q-8 67 -51 114t-106 59zM665 0h-149v925q-102 27 -166 116q-56 76 -56 175q0 66 27 125t74 100q-50 45 -75.5 101.5t-25.5 125.5h112q0 -55 20.5 -97t62.5 -73q51 20 106 20q31 0 54 -4t52 -16q42 30 64.5 72.5t22.5 97.5h112q0 -66 -26.5 -123
t-78.5 -104q43 -37 72.5 -97t29.5 -128q0 -111 -70 -193q-64 -76 -161 -101v-277q91 88 244 88q168 0 278.5 -128.5t110.5 -319.5q0 -43 -8 -85.5t-27 -92.5q-35 -94 -73 -141q-31 -38 -31 -97q0 -19 5 -49q19 -95 105 -95q47 0 78 40q35 45 35 96l144 53q0 -135 -58 -223
q-72 -107 -200 -107q-100 0 -159 53t-81 132q-15 54 -15 106q0 111 74 208q56 78 68 202q0 110 -64 196q-74 96 -182 96q-94 0 -162 -50q-83 -63 -83 -177v-350zM781 1187h-157v-173q61 9 104.5 57t52.5 116zM566 1014v173h-157q7 -62 48 -109q45 -54 109 -64zM409 1245h157
v173q-63 -10 -104 -59q-42 -45 -53 -114z" />
    <glyph glyph-name="Ccedilla" unicode="&#xc7;" 
d="M877 0h-124v835q-196 19 -343 159q-86 80 -133 174q-50 101 -50 211l124 81l-1 -40q0 -192 137 -329t329 -137q179 0 313 122q153 138 153 344l-1 40l123 -80q0 -109 -47.5 -205t-135.5 -181q-146 -138 -343 -159v-287q74 80 203 80q140 0 233 -117q46 -57 69 -128.5
t23 -161.5q0 -74 -29.5 -159t-61.5 -131q-25 -34 -25 -88v-17t4 -28q16 -86 87 -86q37 0 65.5 38.5t28.5 85.5l120 48q0 -122 -48 -203q-61 -97 -166 -97q-84 0 -133 48.5t-68 119.5q-12 50 -12 96q0 103 61 189q25 37 41 84t16 100q0 108 -61 187t-144 79
q-81 0 -142.5 -52.5t-61.5 -154.5v-280zM815 1668q103 0 176.5 -74.5t73.5 -175.5t-69 -172q-75 -78 -181 -78q-102 0 -176 74.5t-74 175.5q0 97 69 172q74 78 181 78zM815 1560q-61 0 -101 -43t-40 -99q0 -59 41.5 -100.5t99.5 -41.5q60 0 101 43t41 99t-41.5 99t-100.5 43
z" />
    <glyph glyph-name="Egrave" unicode="&#xc8;" 
d="M1211 269h-230v-269h-139v269h-231v139h231v238h-512l581 1007l581 -1007h-511v-238h230v-139zM911 1366l-343 -596h686z" />
    <glyph glyph-name="Eacute" unicode="&#xc9;" 
d="M295 604l616 1065l615 -1065h-588l588 -1018h-1231l589 1018h-589zM1184 -127h-547l-89 -155h726zM700 -18h156v271zM965 -18h156l-156 271v-271zM965 1272v-536h309zM856 1272l-308 -536h308v536z" />
    <glyph glyph-name="Ecircumflex" unicode="&#xca;" 
d="M1217 1244h-235v-277q152 -23 266 -131q149 -144 149 -350q0 -200 -142 -343t-344 -143q-201 0 -343.5 142.5t-142.5 343.5q0 179 120 319q117 135 295 162v277h-235v141h235v283h142v-283h235v-141zM704 203q91 -68 206 -68t207 68l-207 206zM1191 276q69 93 69 209
q0 114 -68 206l-208 -208zM1119 766q-95 69 -209 69q-113 0 -208 -69l208 -209zM628 692q-68 -92 -68 -207q0 -117 70 -209l207 207z" />
    <glyph glyph-name="Edieresis" unicode="&#xcb;" 
d="M911 1420q-265 0 -452 -187.5t-187 -450.5q0 -246 166 -430q88 -97 211.5 -153t261.5 -56q264 0 451.5 187.5t187.5 451.5q0 136 -56 258.5t-154 213.5q-184 166 -429 166zM911 1562q157 0 293 -56q123 -50 231 -148q117 -107 186.5 -257t69.5 -319q0 -164 -62 -304.5
t-167.5 -247t-248 -168t-302.5 -61.5q-171 0 -320.5 69t-256.5 188q-46 50 -83.5 109.5t-65.5 127.5q-54 135 -54 287q0 170 69 319t187 257q109 101 239 152.5t285 51.5zM911 1098q-129 0 -223 -93t-94 -223q0 -115 73 -201q93 -116 244 -116q128 0 222 91.5t94 225.5
q0 130 -92.5 223t-223.5 93zM911 1239q189 0 323 -134t134 -323q0 -190 -134 -324t-323 -134q-201 0 -338 150q-120 132 -120 308q0 186 133.5 321.5t324.5 135.5zM911 870q38 0 63.5 -26t25.5 -62q0 -37 -26 -63t-63 -26t-63 26t-26 63q0 36 25 61q24 27 64 27z" />
    <glyph glyph-name="Igrave" unicode="&#xcc;" 
d="M130 709l355 280l-69 55h-1l-285 -226v160l285 226l171 -135l172 136l155 -122l155 123l171 -134l168 132l284 -225v-160l-284 225l-67 -53l351 -277v-161l-452 358l-261 -207v-807h-135v808l-257 204l-456 -361v161zM911 1668l199 -232l-199 -232l-200 232zM911 1519
l-72 -83l72 -83l71 83zM1137 991l-69 55l-155 -124l-155 123l-71 -56l224 -177z" />
    <glyph glyph-name="Iacute" unicode="&#xcd;" 
d="M910 1l-250 497l-357 -498h-173l460 635l-466 929h1574l-468 -929l461 -635h-174l-356 498zM980 981l161 -223l331 665h-492v-442zM679 758l162 223v442h-493zM910 848l-163 -227l163 -328l163 328z" />
    <glyph glyph-name="Icircumflex" unicode="&#xce;" 
d="M329 0v1312l-200 252h175l203 -252h806l202 252h177l-201 -252v-1312h-1162zM463 138h378v538l-378 470v-1008zM979 138h377v1008l-377 -470v-538zM619 1171l291 -361l290 361h-581z" />
    <glyph glyph-name="Idieresis" unicode="&#xcf;" 
d="M839 882v682h144v-682q138 -23 241 -124q131 -131 131 -314q0 -74 -24 -142q53 -70 80 -158h281v-144h-409v63q-5 26 -12 48.5t-20 48.5q-55 -65 -131 -107q-100 -53 -209 -53q-95 0 -184.5 41t-154.5 118q-22 -44 -32 -96v-63h-410v144h282q24 85 79 158q-11 34 -17 69
t-6 73q0 183 130 314q100 100 241 124zM1161 278q-109 94 -249 94q-143 0 -250 -95q40 -66 105 -99.5t144 -33.5q76 0 141.5 36t108.5 98zM612 420q134 95 300 95t298 -95l1 24q0 124 -87.5 212.5t-212.5 88.5q-124 0 -212 -89q-44 -44 -66 -96t-22 -116z" />
    <glyph glyph-name="Eth" unicode="&#xd0;" 
d="M228 0v143h330v1249h-331v144h474v-1536h-473zM1593 0h-474v1536h475v-144h-332v-1249h331v-143zM910 908q50 0 89 -32q51 -42 51 -108q0 -58 -41 -99t-99 -41q-57 0 -98 41t-41 99q0 63 46 103q39 37 93 37z" />
    <glyph glyph-name="Ntilde" unicode="&#xd1;" 
d="M1507 1550q0 -238 -143 -431q-152 -204 -384 -242v-146h186v-139h-186v-152q66 -21 111 -79.5t45 -134.5q0 -92 -66 -159t-159 -67q-92 0 -159 66t-67 160q0 76 44 134t112 80v152h-185v139h185v142q-195 21 -339 171q-87 91 -140 222q-25 64 -36.5 131.5t-11.5 147.5
q0 63 12 123q92 -163 244.5 -258.5t336.5 -95.5q171 0 331 97.5t260 257.5q9 -68 9 -119zM911 325q-41 0 -70 -29t-29 -70q0 -37 23 -63q29 -36 76 -36q41 0 70 29t29 70t-33 73q-28 26 -66 26zM1434 1469q-114 -153 -277 -228q-134 -61 -270 -61q-73 0 -140 18t-138 59
q-122 68 -224 190q59 -195 201 -317t307 -122q183 0 326 116q150 120 215 345z" />
    <glyph glyph-name="Ograve" unicode="&#xd2;" 
d="M981 1425v-574h193q0 150 53 299q49 138 143 275h-389zM981 712v-272q68 -22 111 -81q22 -30 33 -63t11 -71q0 -87 -58 -151q-68 -74 -167 -74t-167 74q-58 64 -58 151q0 74 44 132.5t112 82.5v272h-194q0 -99 -26 -200q-22 -86 -69 -189q-81 -182 -215 -323h-207
q88 72 154.5 155.5t118.5 186t78 212.5t26 229q0 236 -102.5 440t-274.5 341h1560q-169 -137 -273 -341t-104 -440t102 -439t275 -342l-207 -2q-134 142 -216 323q-44 99 -67 188q-27 104 -27 201h-193zM842 851v574h-390q94 -138 143 -273q54 -149 54 -301h193zM911 324
q-41 0 -70 -29t-29 -70t29 -70t70 -29t70 29t29 70t-29 70t-70 29z" />
    <glyph glyph-name="Oacute" unicode="&#xd3;" 
d="M912 1064l28 76l32 82q10 26 15.5 45t12.5 44q15 58 15 92q0 45 -20 80q-12 18 -35.5 31t-53.5 13q-58 0 -83 -50q-9 -21 -13.5 -38.5t-4.5 -42.5q0 -35 13 -86q11 -37 30 -87l32 -83zM1114 478h-134v-131q66 -21 110.5 -80t44.5 -134q0 -92 -66 -157q-33 -33 -72 -50
t-86 -17q-90 0 -157.5 65t-67.5 159q0 74 44 132t112 82v131h-134v138h134v159h-270q-21 -63 -81 -113q-31 -21 -63 -32.5t-70 -11.5q-90 0 -157.5 66t-67.5 159q0 90 65.5 157.5t159.5 67.5q74 0 134 -45q27 -21 48 -48q18 -28 32 -62h270v31l-119 248q-49 104 -49 232
q0 114 59 173q30 30 72.5 47t98.5 17q58 0 104.5 -16.5t79.5 -46.5q61 -59 61 -171q0 -109 -58 -234l-111 -248v-32h270q19 64 79 109.5t134 45.5q90 0 158 -66.5t68 -158.5q0 -90 -66.5 -157.5t-159.5 -67.5q-36 0 -69 12q-37 11 -63 32q-60 44 -81 113h-270v-159h134v-138
zM360 942q-41 0 -70 -29t-29 -69q0 -41 29 -70q16 -15 32 -22t38 -7q40 0 71 31q27 30 27 68q0 40 -29 69t-69 29zM911 231q-41 0 -70 -29q-28 -31 -28 -69q0 -41 28 -70q30 -28 70 -28q41 0 69.5 28.5t28.5 69.5q0 40 -29 69t-69 29zM1462 942q-40 0 -69 -28.5t-29 -69.5
q0 -40 29 -69t69 -29t69.5 29.5t29.5 68.5q0 40 -29 70q-16 14 -32.5 21t-37.5 7z" />
    <glyph glyph-name="Ocircumflex" unicode="&#xd4;" 
d="M1497 1668l-1031 -1771h-141l1030 1771h142zM1207 -11q61 9 61 58v367h-138v67q68 13 116 42q68 40 68 93h77v-569q0 -42 44 -55q14 -4 27 -6t34 -2v-87h-366v87l38 2q27 0 39 3zM403 1040q61 9 61 59v367h-138v67q69 13 116 42q67 41 67 93h77v-569q0 -42 45 -56
q27 -8 60 -8v-87h-365v87l38 1q28 0 39 4z" />
    <glyph glyph-name="Otilde" unicode="&#xd5;" 
d="M1475 1668l-1032 -1771h-141l1030 1771h143zM380 1040q61 9 61 59v367h-138v67q68 13 116 42q68 40 68 93h76v-569q0 -42 45 -56q14 -4 27 -6t34 -2v-87h-366v87l38 1q28 0 39 4zM1271 -10h67q36 0 64 32l44 55l74 -39l-84 -141h-370v42q0 44 15 82t48 75l237 255
q27 29 27 57q0 16 -7 30q-18 30 -59 46q-26 9 -51 9t-52 -9q-44 -15 -60 -50l-114 44q27 64 94 104q62 34 132 34q90 0 161 -55q80 -65 80 -155q0 -50 -21 -85q-19 -29 -45 -59l-211 -200q-30 -27 -24 -50q8 -22 55 -22z" />
    <glyph glyph-name="Odieresis" unicode="&#xd6;" 
d="M1479 1668l-1031 -1771h-141l1030 1771h142zM385 1040q61 9 61 59v367h-138v67q69 13 116 42q67 41 67 93h77v-569q0 -42 45 -56q27 -8 60 -8v-87h-365v87l38 1q28 0 39 4zM1280 -103q-77 0 -136 38t-83 97l103 51q24 -69 110 -69q116 0 116 99q0 49 -38 72
q-20 13 -39 19.5t-41 6.5h-39l-48 101h87q42 0 80 24.5t38 73.5q0 98 -116 98q-71 0 -102 -53l-109 41q25 57 83.5 93.5t133.5 36.5q44 0 79 -11t69 -36q86 -63 86 -160q0 -95 -81 -158q81 -63 81 -157q0 -83 -69.5 -145t-164.5 -62z" />
    <glyph glyph-name="multiply" unicode="&#xd7;" horiz-adv-x="1562" 
d="M417 1268l364 -363l363 363h155v-91l-395 -395l395 -396v-90h-155l-363 363l-363 -363h-156v90l396 396l-396 395v91h155z" />
    <glyph glyph-name="Oslash" unicode="&#xd8;" 
d="M1497 1668l-1031 -1771h-141l1030 1771h142zM403 1040q60 9 60 59v367h-137v68q68 12 116 42q34 20 50.5 42t16.5 50h77v-569q0 -41 45 -56q34 -8 60 -8v-87h-365v87l38 1q28 0 39 4zM1389 616v-472h72v-93h-72v-154h-108v154h-303v93l307 472h104zM1093 144h188v288z
" />
    <glyph glyph-name="Ugrave" unicode="&#xd9;" 
d="M1485 1668l-1031 -1771h-141l1030 1771h142zM391 1040q60 9 60 59v367h-137v67q69 13 116 42q67 41 67 93h77v-569q0 -42 45 -56q27 -8 60 -8v-87h-365v87l38 1q28 0 39 4zM1134 104q9 -45 43 -72q36 -33 90 -33q65 0 106 48q31 40 31 87q0 53 -37 94q-32 32 -79 41
q-18 2 -28 2q-27 0 -56.5 -10.5t-53.5 -29.5l-85 42l62 346h354v-103h-279l-31 -193q45 22 100 22q62 0 119 -32q52 -29 85 -84.5t33 -117.5q0 -94 -77 -158q-67 -56 -157 -56q-102 0 -173 70q-44 45 -58 109z" />
    <glyph glyph-name="Uacute" unicode="&#xda;" 
d="M1490 1668l-1031 -1771h-141l1030 1771h142zM530 1041h68q34 0 63 33l44 55l74 -39l-84 -142h-370v42q0 44 15.5 83t47.5 74l237 255q27 30 27 58q0 16 -7 30q-17 29 -58 45q-26 9 -53 9q-22 0 -51 -8q-44 -15 -60 -50l-114 44q27 64 94 103q61 35 132 35q93 0 161 -55
q80 -65 80 -155q0 -50 -21 -85q-19 -29 -45 -59l-211 -199q-25 -24 -25 -42q0 -3 2 -9q6 -23 54 -23zM1139 104q9 -46 48 -76q35 -29 85 -29q56 0 96.5 38.5t40.5 96.5q0 47 -33 89q-32 35 -83 47q-18 2 -27 2q-29 0 -58 -11t-53 -30l-85 42l62 347l355 -1v-103h-280
l-31 -193q47 22 97 22q61 0 122 -32q47 -25 80 -76q38 -58 38 -126q0 -96 -77 -158q-67 -56 -157 -56q-102 0 -173 70q-48 50 -57 109z" />
    <glyph glyph-name="Ucircumflex" unicode="&#xdb;" 
d="M1489 1668l-1031 -1771h-142l1031 1771h142zM395 1040q60 9 60 59v367h-137v67q68 13 116 42q67 41 67 93h77v-569q0 -42 45 -56q27 -8 60 -8v-87h-365v87l38 1q28 0 39 4zM1277 318q86 0 157 -61t71 -148q0 -88 -69.5 -150t-163.5 -62t-163 59.5t-69 150.5v304
q0 87 76 155q71 62 160 62q78 0 142 -34q53 -31 88 -90l-116 -25q-20 24 -42 37t-69 13q-50 0 -89 -35t-39 -97v-131q18 27 57 39.5t69 12.5zM1272 223q-52 0 -89 -41q-26 -34 -26 -73q0 -43 26 -72q33 -41 89 -41q48 0 81 33t33 80t-33 80.5t-81 33.5z" />
    <glyph glyph-name="Udieresis" unicode="&#xdc;" 
d="M1475 1668l-1031 -1771h-142l1031 1771h142zM381 1040q60 9 60 59v367h-137v67q68 13 116 42q67 41 67 93h77v-569q0 -42 45 -56q27 -8 60 -8v-87h-365v87l38 1q28 0 39 4zM1519 616l-171 -719h-113l144 604h-328v115h468z" />
    <glyph glyph-name="Yacute" unicode="&#xdd;" 
d="M1479 1668l-1031 -1771h-141l1030 1771h142zM519 1041h68q34 0 63 33l45 55l73 -39l-84 -142h-370v42q0 89 64 157l237 255q26 27 26 58q0 16 -7 30q-17 30 -58 45q-26 9 -53 9q-22 0 -51 -8q-44 -15 -60 -50l-114 44q27 65 90 101.5t136 36.5q93 0 161 -55
q39 -30 59.5 -69t20.5 -86q0 -50 -21 -85q-19 -29 -45 -59l-211 -199q-29 -29 -23 -51q6 -23 54 -23zM1524 616l-172 -719h-112l144 604h-329v115h469z" />
    <glyph glyph-name="Thorn" unicode="&#xde;" 
d="M1477 1668l-1031 -1771h-141l1030 1771h142zM519 938q-77 0 -135 38q-60 36 -84 98l103 51q24 -69 110 -69q116 0 116 98q0 49 -38 72q-20 13 -39 19.5t-41 6.5h-39l-48 101h87q42 0 80 24.5t38 73.5q0 99 -116 99q-69 0 -102 -54l-109 41q25 57 86 94t131 37
q81 0 149 -48q85 -64 85 -160q0 -94 -81 -157q81 -65 81 -158q0 -86 -69 -146.5t-165 -60.5zM1522 616l-172 -719h-112l144 604h-329v115h469z" />
    <glyph glyph-name="germandbls" unicode="&#xdf;" 
d="M394 1040q61 9 61 59v367h-138v68q65 10 116 42q33 19 50.5 41.5t17.5 50.5h76v-569q0 -41 45 -56q14 -3 28.5 -5t32.5 -2v-88h-366v87q18 0 37 1t40 4zM1488 1668l-1031 -1771h-141l1030 1771h142zM1440 261q69 -63 69 -151q0 -95 -77 -157q-67 -56 -157 -56
q-102 0 -173 70q-61 61 -61 143q0 87 70 151q-34 31 -52 69t-18 83q0 93 77 158q67 55 157 55t157 -55q77 -63 77 -158q0 -89 -69 -152zM1275 516q-44 0 -78 -33t-34 -80t33 -79q32 -34 79 -34q46 0 79.5 33.5t33.5 79.5q0 50 -39 85q-34 28 -74 28zM1275 233q-47 0 -79 -33
q-33 -32 -33 -79t33 -80t79 -33q45 0 79 33t34 80q0 49 -39 85q-32 27 -74 27z" />
    <glyph glyph-name="agrave" unicode="&#xe0;" 
d="M1491 1668l-1031 -1771h-142l1031 1771h142zM533 938q-77 0 -135 38q-60 36 -85 98l104 51q24 -69 110 -69q115 0 115 98q0 49 -38 72q-19 13 -38 19.5t-41 6.5h-39l-49 101h88q42 0 79.5 24.5t37.5 73.5q0 99 -115 99q-68 0 -103 -54l-108 41q24 56 85 93.5t132 37.5
q83 0 148 -48q86 -63 86 -160q0 -94 -82 -157q82 -64 82 -158q0 -84 -69 -145.5t-165 -61.5zM1275 233q-45 0 -79 -33t-34 -79q0 -45 33 -79t80 -34q45 0 78.5 32.5t33.5 80.5q0 50 -38 85q-32 27 -74 27zM1275 516q-44 0 -80 -33q-33 -35 -33 -80q0 -44 33 -80
q33 -33 80 -33q44 0 80 33q32 34 32 80q0 51 -38 85q-34 28 -74 28zM1440 261q69 -65 69 -151q0 -93 -77 -157q-68 -56 -157 -56q-102 0 -173 70q-61 59 -61 143q0 85 69 151q-69 63 -69 152q0 93 77 158q67 55 157 55q89 0 157 -55q77 -63 77 -158q0 -86 -69 -152z" />
    <glyph glyph-name="aacute" unicode="&#xe1;" 
d="M1493 1668l-1032 -1771h-141l1030 1771h143zM398 1040q61 9 61 59v367h-138v67q68 13 116 42q68 40 68 93h76v-569q0 -42 45 -56q14 -4 27 -6t34 -2v-87h-366v87l38 1q28 0 39 4zM1265 206q-45 0 -83 14.5t-74 45.5q-71 62 -71 149q0 88 67.5 150.5t166.5 62.5
q91 0 161 -60.5t70 -151.5v-303q0 -44 -19.5 -82.5t-56.5 -71.5q-36 -30 -75.5 -46t-84.5 -16q-71 0 -134 39q-69 43 -84 108h117q6 -19 34 -35q30 -14 64 -14q55 0 88 33q43 43 43 99v135q-18 -27 -57.5 -41.5t-71.5 -14.5zM1271 300q50 0 88 42q26 32 26 73q0 42 -26 72
q-33 42 -88 42q-47 0 -81 -34t-34 -80q0 -47 34 -81t81 -34z" />
    <glyph glyph-name="acircumflex" unicode="&#xe2;" 
d="M1497 1668l-1031 -1771h-141l1030 1771h142zM537 1041h68q34 0 63 33l44 55l74 -39l-84 -142h-370v42q0 44 15.5 83t47.5 74l237 255q27 30 27 58q0 16 -7 30q-18 30 -59 45q-26 9 -53 9q-23 0 -50 -8q-44 -15 -60 -50l-114 44q27 64 94 103q61 35 132 35q93 0 161 -55
q80 -65 80 -155q0 -50 -21 -85q-19 -29 -45 -59l-211 -199q-30 -30 -24 -51q8 -23 55 -23zM1275 300q50 0 88 42q26 32 26 73q0 42 -26 72q-33 42 -88 42q-47 0 -80.5 -33.5t-33.5 -80.5q0 -46 33.5 -80.5t80.5 -34.5zM1269 206q-45 0 -83 14.5t-73 45.5q-71 62 -71 149
t68 150t165 63q91 0 161 -60.5t70 -150.5v-304q0 -44 -19.5 -82.5t-56.5 -71.5q-71 -62 -159 -62q-72 0 -135 39q-66 43 -84 108h118q7 -18 33 -35q30 -14 65 -14q54 0 87 33q43 43 43 99v135q-18 -27 -57.5 -41.5t-71.5 -14.5z" />
    <glyph glyph-name="atilde" unicode="&#xe3;" 
d="M1512 1668l-1031 -1771h-142l1031 1771h142zM543 1668h102v-473h73v-92h-72v-155h-108v155h-302v92zM538 1484l-187 -289h187v289zM1290 300q50 0 88 42q26 31 26 73t-26 72q-33 42 -88 42q-47 0 -80.5 -34t-33.5 -80q0 -47 34 -81q32 -34 80 -34zM1284 206
q-45 0 -83 14.5t-73 45.5q-71 60 -71 149q0 88 68.5 150.5t164.5 62.5q91 0 161 -60.5t70 -151.5v-303q0 -44 -19.5 -82.5t-56.5 -71.5q-71 -62 -159 -62q-72 0 -135 39q-66 43 -84 108h118q7 -21 33 -35q31 -14 65 -14q54 0 87 33q43 43 43 99v135q-18 -27 -57.5 -41.5
t-71.5 -14.5z" />
    <glyph glyph-name="adieresis" unicode="&#xe4;" 
d="M1313 1668l-1031 -1771h-142l1031 1771h142zM868 -11q61 11 61 58v367h-138v68q66 11 117 42q34 20 50.5 42t16.5 50h76v-569q0 -41 45 -55q16 -4 30.5 -6t30.5 -2v-87h-365v87l38 2q24 0 38 3zM301 1040q61 9 61 59v367h-138v67q63 11 110 38q74 42 74 97h76v-569
q0 -42 45 -56q14 -4 27 -6t34 -2v-87h-366v87l38 1q28 0 39 4zM1470 621q111 0 181 -133q54 -104 54 -232q0 -139 -62 -245q-69 -119 -173 -119q-115 0 -187 146q-47 99 -47 218t47 219q69 146 187 146zM1470 517q-50 0 -78 -115q-17 -66 -17 -146q0 -40 4 -76.5t13 -68.5
q27 -114 78 -114q50 0 79 114q17 65 17 145q0 40 -4 76.5t-13 69.5q-29 115 -79 115z" />
    <glyph glyph-name="aring" unicode="&#xe5;" 
d="M1470 622q109 0 180 -134q54 -101 54 -232q0 -141 -61 -245q-72 -119 -173 -119q-117 0 -187 146q-47 96 -47 218q0 125 47 219q69 147 187 147zM1470 517q-51 0 -79 -115q-8 -36 -12 -70t-4 -76q0 -80 16 -145q27 -114 79 -114q49 0 79 114q16 70 16 145q0 79 -16 146
q-29 115 -79 115zM1312 1668l-1031 -1771h-141l1030 1771h142zM868 -11q61 11 61 58v367h-138v68q65 10 116 42q33 19 50.5 41.5t17.5 50.5h76v-569q0 -41 45 -55q27 -8 60 -8v-87h-365v87l38 2q27 0 39 3zM427 938q-77 0 -135 38q-60 36 -84 97l103 52q24 -69 110 -69
q116 0 116 98q0 49 -38 72q-20 13 -39 19.5t-41 6.5h-39l-49 101h88q42 0 80 24.5t38 73.5q0 99 -116 99q-69 0 -102 -54l-109 41q27 59 92 98q56 33 125 33q81 0 149 -48q85 -64 85 -160q0 -94 -81 -157q81 -65 81 -158q0 -97 -85 -160q-65 -47 -149 -47z" />
    <glyph glyph-name="ae" unicode="&#xe6;" 
d="M301 1040q60 9 60 59v367h-137v67q31 6 58 15t51 23q74 42 74 97h77v-569q0 -42 45 -56q27 -8 60 -8v-87h-365v87l38 1q28 0 39 4zM1401 -11q61 11 61 58v367h-138v67q77 15 128 51t56 84h76v-569q0 -41 45 -55q27 -8 60 -8v-87h-365v87l38 2q27 0 39 3zM840 -11
q60 11 60 58v367h-137v67q66 12 116 43q34 20 50.5 42t16.5 50h77v-569q0 -42 44 -55q14 -4 27.5 -6t33.5 -2v-87h-365v87l38 2q27 0 39 3zM1305 1668l-1031 -1771h-142l1031 1771h142z" />
    <glyph glyph-name="ccedilla" unicode="&#xe7;" 
d="M1305 1668l-1031 -1771h-142l1031 1771h142zM840 -11q61 9 61 58v367h-138v67q67 12 117 43q34 20 50.5 42t16.5 50h76v-569q0 -41 45 -55q14 -4 27 -6t34 -2v-87h-365v87l38 2q24 0 38 3zM1401 -11q60 9 60 58v367h-137v67q77 15 130 52t53 83h77v-569q0 -41 45 -55
q27 -8 60 -8v-87h-365v87l38 2q27 0 39 3zM430 1041h61q15 0 34 6t31 22l49 60l73 -39l-84 -142h-369v42q0 44 15.5 83t47.5 74l237 255q26 27 26 58q0 16 -7 30q-15 27 -58 45q-26 9 -53 9q-22 0 -51 -8q-42 -15 -59 -51l-115 45q27 63 95 103q59 34 131 34q93 0 162 -54
q79 -65 79 -156q0 -28 -4 -47t-16 -38q-19 -29 -45 -59l-211 -199q-30 -28 -24 -50q8 -23 55 -23z" />
    <glyph glyph-name="egrave" unicode="&#xe8;" 
d="M1305 1668l-1031 -1771h-142l1030 1771h143zM840 -11q61 9 61 58v367h-138v67q69 12 117 42q67 41 67 93h76v-569q0 -41 45 -55q27 -8 60 -8v-87h-365v87l38 2q27 0 39 3zM1401 -11q60 9 60 58v367h-137v67q77 15 130 52t53 83h77v-569q0 -42 44 -55q14 -4 27.5 -6
t33.5 -2v-87h-365v87l38 2q27 0 39 3zM419 937q-73 0 -134 37.5t-85 98.5l103 51q26 -68 111 -68q47 0 81 28.5t34 69.5q0 49 -38 72q-20 13 -39 19.5t-41 6.5h-39l-48 101h87q42 0 80 24.5t38 73.5q0 39 -34 68.5t-81 29.5q-72 0 -103 -53l-109 41q25 57 86 94t131 37
q90 0 157 -55q77 -63 77 -153q0 -92 -81 -158q81 -63 81 -157q0 -87 -69.5 -147.5t-164.5 -60.5z" />
    <glyph glyph-name="eacute" unicode="&#xe9;" 
d="M452 1669h104v-476h72v-92h-72v-156h-108v156h-303v92zM448 1484l-188 -291h188v291zM1401 -11q60 11 60 58v367h-137v68q77 12 130 50t53 84h77v-569q0 -41 45 -55q34 -8 60 -8v-87h-365v87l38 2q27 0 39 3zM840 -11q61 11 61 58v367h-138v68q66 11 117 42
q34 20 50.5 42t16.5 50h76v-569q0 -41 45 -55q16 -4 30.5 -6t30.5 -2v-87h-366v87l38 2q27 0 39 3zM1305 1668l-1031 -1771h-142l1031 1771h142z" />
    <glyph glyph-name="ecircumflex" unicode="&#xea;" 
d="M1304 1668l-1031 -1771h-141l1030 1771h142zM840 -11q61 11 61 58v367h-138v68q65 10 116 42q33 19 50.5 41.5t17.5 50.5h76v-569q0 -41 45 -55q27 -8 60 -8v-87h-365v87l38 2q27 0 39 3zM1401 -11q60 9 60 58v367h-137v67q78 15 130.5 52t52.5 83h77v-569q0 -42 44 -55
q14 -4 27.5 -6t33.5 -2v-87h-365v87l38 2q27 0 39 3zM289 1152q11 -44 40 -69q39 -37 94 -37q53 0 94.5 38t41.5 98q0 57 -41 98q-33 30 -74 37q-7 0 -15.5 1t-13.5 1q-27 0 -56.5 -10.5t-53.5 -29.5l-85 41l62 347h355v-103h-280l-31 -193q47 22 97 22q64 0 122 -32
q49 -27 81 -76q37 -62 37 -127q0 -94 -76 -158q-68 -56 -157 -56q-102 0 -173 70q-48 46 -58 110z" />
    <glyph glyph-name="edieresis" unicode="&#xeb;" 
d="M1443 -8h68q13 0 19 1.5t17.5 6.5t25.5 22l46 58l73 -40l-84 -143h-370v43q0 88 63 159l238 258q26 27 26 58q0 10 -1 15t-6 16q-16 30 -58 46q-26 9 -53 9q-22 0 -51 -8q-42 -15 -60 -51l-114 45q25 62 95 104q56 35 131 35q93 0 161 -55q39 -32 59.5 -71.5t20.5 -86.5
q0 -50 -21 -86q-21 -33 -45 -60l-211 -202q-29 -29 -23 -51t54 -22zM300 1040q60 9 60 59v367h-137v67q31 6 58 15t51 23q74 42 74 97h77v-569q0 -42 45 -56q27 -8 60 -8v-87h-365v87l38 1q28 0 39 4zM839 -11q60 9 60 58v367h-137v67q66 12 116 43q34 20 50.5 42t16.5 50
h77v-569q0 -42 44 -55q14 -4 27.5 -6t33.5 -2v-87h-365v87l38 2q27 0 39 3zM1303 1668l-1031 -1771h-142l1031 1771h142z" />
    <glyph glyph-name="igrave" unicode="&#xec;" 
d="M288 1152q9 -45 46 -75.5t87 -30.5q60 0 101 44q36 39 36 92q0 49 -33.5 87.5t-82.5 47.5q-18 2 -27 2q-26 0 -56 -9q-34 -12 -56 -31l-85 41l62 347h355v-103h-280l-30 -193q46 22 96 22q64 0 122 -32q49 -27 81 -76q38 -59 38 -126q0 -97 -77 -159q-68 -56 -157 -56
q-102 0 -173 70q-45 45 -58 110zM1443 -8h67q21 0 35 7t27 23l46 58l74 -40l-84 -143h-370v43q0 89 63 159l237 258q27 30 27 58q0 17 -7 31q-16 30 -59 46q-26 9 -53 9q-23 0 -50 -8q-42 -15 -60 -51l-114 45q27 66 94 105q59 34 132 34q90 0 161 -55q39 -32 59.5 -71.5
t20.5 -86.5q0 -50 -20.5 -83t-45.5 -63l-211 -202q-30 -30 -24 -51q6 -22 55 -22zM838 -11q61 11 61 58v367h-138v68q66 11 117 42q34 20 50.5 42t16.5 50h76v-569q0 -41 45 -55q14 -4 27 -6t34 -2v-87h-365v87l38 2q24 0 38 3zM1303 1668l-1031 -1771h-142l1031 1771h142z
" />
    <glyph glyph-name="iacute" unicode="&#xed;" 
d="M1458 -108q-77 0 -135 37t-85 98l104 51q24 -69 110 -69q47 0 81 28.5t34 69.5q0 49 -38 72q-18 12 -38.5 19.5t-40.5 7.5l-40 -1l-48 102l88 -1q43 0 79 26q38 24 38 73q0 39 -34 68.5t-81 29.5q-71 0 -103 -53l-108 41q24 56 83.5 93t133.5 37q44 0 79 -11t69 -36
q85 -64 85 -161q0 -95 -81 -157q81 -62 81 -157q0 -84 -69 -145.5t-164 -61.5zM299 1040q61 9 61 59v367h-138v67q63 11 110 38q74 41 74 97h76v-569q0 -42 45 -56q14 -4 27 -6t34 -2v-87h-366v87l38 1q28 0 39 4zM838 -11q61 9 61 58v367h-138v67q67 12 116 43
q33 19 50.5 41.5t17.5 50.5h76v-569q0 -41 45 -55q27 -8 60 -8v-87h-365v87l38 2q27 0 39 3zM1303 1668l-1031 -1771h-142l1031 1771h142z" />
    <glyph glyph-name="icircumflex" unicode="&#xee;" 
d="M1458 -108q-80 0 -142 43q-55 36 -78 92l104 51q24 -69 110 -69q47 0 81 28.5t34 70.5q0 49 -38 72q-19 13 -38 19.5t-41 6.5l-40 -1l-48 102h88q42 0 79.5 24.5t37.5 73.5q0 39 -34 68.5t-81 29.5q-69 0 -103 -53l-108 41q24 56 85 93.5t132 37.5q83 0 148 -48
q85 -64 85 -160q0 -93 -81 -158q81 -62 81 -157q0 -84 -69 -145.5t-164 -61.5zM414 1042h67q38 0 63 32l45 56l73 -39l-84 -143h-369v43q0 44 15.5 83t47.5 74l237 255q13 14 19.5 28t6.5 29q0 16 -7 30q-15 30 -58 46q-26 9 -53 9q-23 0 -50 -8q-45 -15 -60 -51l-115 44
q25 62 95 104q59 34 132 34q89 0 161 -54q79 -65 79 -156q0 -28 -4 -47t-16 -38q-19 -29 -45 -59l-211 -199q-31 -30 -24 -51q8 -22 55 -22zM838 -11q61 11 61 58v368h-138v67q66 11 117 42q34 20 50.5 42t16.5 50h76v-569q0 -41 45 -55q16 -4 30.5 -6t30.5 -2v-87h-366v87
l38 2q27 0 39 3zM1303 1668l-1031 -1771h-142l1031 1771h142z" />
    <glyph glyph-name="idieresis" unicode="&#xef;" 
d="M418 937q-77 0 -135 38q-60 36 -84 98l103 51q24 -69 110 -69q116 0 116 98q0 49 -38 72q-19 12 -39.5 19.5t-40.5 7.5l-39 -1l-49 102l88 -1q42 0 80 24.5t38 74.5q0 98 -116 98q-70 0 -102 -53l-109 41q24 55 83 92.5t134 37.5q83 0 148 -47q86 -65 86 -161
q0 -94 -82 -157q82 -64 82 -157q0 -92 -77 -154q-66 -54 -157 -54zM1458 -108q-77 0 -135 37t-85 98l104 51q24 -69 110 -69q47 0 81 28.5t34 69.5q0 49 -38 72q-18 12 -38.5 19.5t-40.5 7.5l-40 -1l-48 102h88q42 0 79.5 24.5t37.5 73.5q0 39 -34 68.5t-81 29.5
q-71 0 -103 -53l-108 41q27 61 91 98q59 32 126 32q44 0 79 -11t69 -36q85 -64 85 -161q0 -95 -81 -157q81 -62 81 -157q0 -92 -76 -153q-66 -54 -157 -54zM838 -11q61 9 61 58v367h-138v67q67 12 117 43q34 20 50.5 42t16.5 50h76v-569q0 -41 45 -55q27 -8 60 -8v-87h-365
v87l38 2q27 0 39 3zM1303 1668l-1031 -1771h-142l1031 1771h142z" />
    <glyph glyph-name="eth" unicode="&#xf0;" 
d="M448 1484l-188 -289h188v289zM452 1668h104v-473h72v-92h-72v-155h-108v155h-303v92zM1458 -108q-77 0 -136 38t-83 97l103 51q24 -69 110 -69q116 0 116 99q0 49 -38 72q-20 13 -39 19.5t-41 6.5l-39 -1l-49 102h88q42 0 80 24.5t38 73.5q0 98 -116 98q-71 0 -102 -53
l-109 41q25 57 85 94t132 37q81 0 149 -48q85 -64 85 -160q0 -94 -82 -158q82 -64 82 -157q0 -91 -77 -153q-69 -54 -157 -54zM839 -11q60 11 60 58v367h-137v68q63 10 116 42q34 20 50.5 42t16.5 50h76v-569q0 -41 45 -55q16 -4 30.5 -6t30.5 -2v-87h-365v87l38 2
q27 0 39 3zM1303 1668l-1031 -1771h-142l1031 1771h142z" />
    <glyph glyph-name="ntilde" unicode="&#xf1;" 
d="M287 1152q9 -40 40 -69q39 -37 94 -37q51 0 92 35q45 41 45 101q0 56 -42 98q-33 30 -74 37q-8 2 -17 2h-14q-22 0 -43 -6q-38 -12 -65 -34l-85 41l62 347h355v-103h-280l-30 -193q25 12 51.5 17t58.5 5q52 0 108 -32q49 -27 81 -76q38 -62 38 -127q0 -94 -77 -158
q-68 -56 -157 -56q-102 0 -173 70q-48 46 -58 110zM1458 -108q-70 0 -130 35t-90 100l104 51q24 -69 110 -69q115 0 115 99q0 49 -38 72q-19 13 -38 19.5t-41 6.5l-40 -1l-48 102h88q42 0 79.5 24.5t37.5 73.5q0 98 -115 98q-69 0 -103 -53l-108 41q24 56 83.5 93t133.5 37
q44 0 79 -11t69 -36q85 -64 85 -161q0 -95 -81 -157q81 -62 81 -157q0 -92 -76 -153q-69 -54 -157 -54zM838 -11q61 11 61 58v367h-138v67q67 12 117 43q34 20 50.5 42t16.5 50h76v-569q0 -41 45 -55q27 -8 60 -8v-87h-365v87l38 2q27 0 39 3zM1303 1668l-1031 -1771h-142
l1030 1771h143z" />
    <glyph glyph-name="ograve" unicode="&#xf2;" 
d="M433 1263q-53 0 -88 -42q-26 -34 -26 -72q0 -41 26 -73q35 -42 88 -42q47 0 81 34t34 81q0 46 -34 80t-81 34zM439 1357q86 0 157 -59q71 -65 71 -149q0 -89 -68.5 -151.5t-165.5 -62.5q-91 0 -159 59q-72 63 -72 153v303q0 90 73.5 153.5t162.5 63.5q78 0 142 -34
q56 -33 87 -89l-115 -26q-22 26 -43.5 38t-67.5 12q-50 0 -89 -35t-39 -97v-131q18 27 57 39.5t69 12.5zM1458 -108q-80 0 -142 43q-53 34 -77 92l103 51q24 -69 110 -69q116 0 116 98q0 49 -38 72q-19 12 -39.5 19.5t-40.5 7.5l-39 -1l-49 101h88q42 0 80 26q38 24 38 73
q0 98 -116 98q-70 0 -102 -53l-109 41q25 57 83.5 93.5t133.5 36.5q83 0 148 -47q86 -63 86 -161q0 -94 -82 -157q82 -64 82 -157q0 -91 -77 -153q-66 -54 -157 -54zM838 -11q61 9 61 58v367h-138v67q67 12 117 43q34 20 50.5 42t16.5 50h76v-569q0 -41 45 -55q14 -4 27 -6
t34 -2v-87h-365v87l38 2q24 0 38 3zM1303 1668l-1031 -1771h-142l1031 1771h142z" />
    <glyph glyph-name="oacute" unicode="&#xf3;" 
d="M299 1040q61 9 61 59v367h-138v67q63 11 110 38q74 41 74 97h76v-569q0 -42 45 -56q14 -4 27 -6t34 -2v-87h-366v87l38 1q28 0 39 4zM838 -11q61 11 61 58v367h-138v68q63 11 110 38q74 41 74 96h76v-569q0 -41 45 -55q34 -8 60 -8v-87h-365v87l38 2q27 0 39 3z
M1303 1668l-1031 -1771h-142l1031 1771h142zM1516 616h104v-472h71v-93h-71v-154h-109v154h-302v93zM1511 432l-187 -288h187v288z" />
    <glyph glyph-name="ocircumflex" unicode="&#xf4;" 
d="M838 -11q61 9 61 58v367h-138v67q67 12 117 43q34 20 50.5 42t16.5 50h76v-569q0 -41 45 -55q14 -4 27 -6t34 -2v-87h-365v87l38 2q24 0 38 3zM1512 432l-188 -289h188v289zM1516 616h104v-473h72v-92h-72v-154h-108v154h-303v92zM1303 1668l-1032 -1771h-141l1031 1771
h142zM418 937q-64 0 -120 30q-70 36 -100 106l104 51q24 -69 110 -69q116 0 116 98q0 49 -38 72q-19 12 -39.5 19.5t-40.5 7.5l-39 -1l-49 101h88q42 0 80 24.5t38 74.5q0 98 -116 98q-70 0 -102 -53l-109 41q24 56 83.5 93t133.5 37q83 0 148 -47q86 -65 86 -161
q0 -94 -82 -157q82 -64 82 -157q0 -96 -86 -161q-65 -47 -148 -47z" />
    <glyph glyph-name="otilde" unicode="&#xf5;" 
d="M1302 1668l-1031 -1771h-141l1030 1771h142zM838 -11q61 9 61 58v367h-138v67q67 12 116 43q33 19 50.5 41.5t17.5 50.5h76v-569q0 -41 45 -55q27 -8 60 -8v-87h-365v87l38 2q27 0 39 3zM1511 432l-187 -289h187v289zM1516 616h104v-473h71v-92h-71v-154h-109v154h-302
v92zM287 1151q9 -43 46.5 -74t87.5 -31q56 0 96 39t40 97q0 55 -37 93q-31 33 -78 42q-18 2 -28 2q-26 0 -55 -9q-32 -12 -56 -31l-85 41l62 347h355v-103h-280l-31 -193q48 22 104 22q59 0 113 -31t91 -90q29 -55 29 -114q0 -94 -76 -158q-68 -56 -157 -56q-102 0 -173 70
q-48 46 -58 110z" />
    <glyph glyph-name="odieresis" unicode="&#xf6;" 
d="M1318 100q9 -47 47 -76t86 -29q56 0 97 39q40 42 40 97q0 49 -33.5 87.5t-82.5 47.5q-18 2 -27 2q-25 0 -55 -8.5t-57 -31.5l-85 41l62 347h355v-104h-280l-31 -192q48 22 104 22q59 0 115 -32q49 -29 81 -77q38 -61 38 -126q0 -93 -77 -158q-70 -56 -157 -56
q-102 0 -173 71q-48 46 -58 109zM299 1040q61 9 61 59v367h-138v67q31 6 58 15t51 23q75 41 75 97h76v-569q0 -42 45 -56q27 -8 60 -8v-87h-365v87l38 1q28 0 39 4zM838 -11q61 9 61 58v367h-138v67q67 12 117 43q34 20 50.5 42t16.5 50h76v-569q0 -41 45 -55q14 -4 27 -6
t34 -2v-87h-366v87l38 2q27 0 39 3zM1303 1668l-1031 -1771h-142l1031 1771h142z" />
    <glyph glyph-name="divide" unicode="&#xf7;" horiz-adv-x="1562" 
d="M201 860h1160v-157h-1160v157zM680 416h202v-199h-202v199zM680 1346h202v-198h-202v198z" />
    <glyph glyph-name="oslash" unicode="&#xf8;" 
d="M909 1301q164 0 301 -96l273 272l123 -122l-273 -273q96 -135 96 -300q0 -212 -153 -366t-367 -154q-163 0 -300 96l-272 -272l-122 123l271 272q-96 135 -96 301q0 228 171 384q147 135 348 135zM1207 956l-472 -472q81 -48 174 -48q142 0 244 100.5t102 245.5
q0 91 -48 174zM612 607l472 472q-78 48 -175 48q-142 0 -243.5 -101.5t-101.5 -243.5q0 -92 48 -175z" />
    <glyph glyph-name="ugrave" unicode="&#xf9;" 
d="M1318 100q9 -47 46.5 -76t86.5 -29q63 0 105 49q32 38 32 87t-33.5 87.5t-82.5 47.5q-10 1 -17.5 1.5t-11.5 0.5q-27 0 -55 -9.5t-55 -30.5l-85 41l62 347h355v-104h-280l-31 -192q47 22 97 22q64 0 118.5 -31t88.5 -84q34 -59 34 -120q0 -93 -77 -158q-70 -56 -157 -56
q-102 0 -173 71q-48 46 -58 109zM414 1042h67q36 0 64 32l44 55l73 -39l-83 -142h-370v42q0 44 15.5 83t47.5 74l237 256q27 29 27 57q0 14 -8 30q-17 30 -58 45q-26 9 -53 9q-23 0 -50 -8q-45 -15 -60 -50l-115 44q27 65 91.5 101.5t135.5 36.5q90 0 161 -55
q80 -65 80 -155q0 -50 -21 -85q-19 -29 -45 -59l-211 -199q-30 -30 -24 -51q6 -22 55 -22zM839 -11q60 9 60 58v367h-138v67q69 12 117 42q67 41 67 93h76v-569q0 -41 45 -55q14 -4 27 -6t34 -2v-87h-365v87l38 2q27 0 39 3zM1303 1668l-1031 -1771h-142l1031 1771h142z" />
    <glyph glyph-name="uacute" unicode="&#xfa;" 
d="M452 1668h104v-473h71v-92h-71v-155h-109v155h-302v92zM447 1484l-187 -289h187v289zM1317 100q9 -46 48 -76q35 -29 86 -29q60 0 101 44q35 38 35 92q0 55 -37 93q-33 33 -79 42q-6 1 -13.5 1h-11.5q-25 0 -57 -8q-29 -10 -56 -31l-85 41l62 347h355v-104h-280l-31 -192
q47 22 97 22q64 0 122 -32q52 -29 85 -85.5t33 -117.5q0 -92 -76 -158q-68 -56 -157 -56q-103 0 -174 71q-46 48 -57 108zM838 -11q61 9 61 58v367h-138v67q68 13 116 42q68 41 68 93h76v-569q0 -41 45 -55q27 -8 60 -8v-87h-365v87l38 2q27 0 39 3zM1302 1668l-1031 -1771
h-141l1030 1771h142z" />
    <glyph glyph-name="ucircumflex" unicode="&#xfb;" 
d="M737 1668l-172 -720h-112l144 604h-328v116h468zM1318 100q9 -47 47 -75q36 -30 86 -30q57 0 97 40t40 96q0 49 -33.5 87.5t-82.5 47.5q-18 2 -27 2q-23 0 -47 -6q-37 -10 -65 -34l-85 41l62 347h355v-103h-280l-31 -193q47 22 97 22q64 0 119 -31t92 -90q30 -54 30 -114
q0 -93 -77 -158q-70 -56 -157 -56q-102 0 -173 71q-48 46 -58 109zM839 -11q60 11 60 58v367h-137v67q66 12 116 43q34 20 50.5 42t16.5 50h76v-569q0 -41 45 -55q14 -4 27 -6t34 -2v-87h-365v87l38 2q27 0 39 3zM1303 1668l-1031 -1771h-142l1031 1771h142z" />
    <glyph glyph-name="udieresis" unicode="&#xfc;" 
d="M301 1040q61 9 61 59v367h-138v68q64 9 109 38q75 41 75 96h76v-569q0 -41 45 -56q16 -4 30.5 -6t30.5 -2v-87h-366v87l38 1q28 0 39 4zM839 -11q60 11 60 58v368h-137v67q63 10 116 42q34 20 50.5 42t16.5 50h76v-569q0 -41 45 -55q16 -4 30.5 -6t30.5 -2v-87h-365v87
l38 2q27 0 39 3zM1312 1668l-1031 -1771h-142l1031 1771h142zM1466 310q88 0 158 -60.5t70 -145.5q0 -86 -68 -148t-166 -62q-92 0 -161.5 59t-69.5 149v300q0 88 76 153q35 29 74.5 45t85.5 16q78 0 142 -34q54 -32 87 -88l-115 -25q-23 26 -44 37.5t-67 11.5
q-52 0 -88 -32q-20 -19 -30 -42.5t-10 -55.5v-130q18 27 57 39.5t69 12.5zM1462 214q-54 0 -89 -41q-26 -31 -26 -71q0 -43 26 -72q34 -40 89 -40q48 0 81 32t33 80q0 45 -33 78.5t-81 33.5z" />
    <glyph glyph-name="yacute" unicode="&#xfd;" 
d="M427 937q-64 0 -120 30q-70 36 -100 106l104 51q24 -69 110 -69q116 0 116 98q0 49 -38 72q-19 12 -39.5 19.5t-40.5 7.5l-40 -1l-48 101h88q42 0 80 26q38 24 38 73q0 98 -116 98q-69 0 -103 -53l-108 41q24 53 84 94q59 36 133 36q83 0 148 -47q85 -64 85 -161
q0 -95 -81 -157q81 -62 81 -157q0 -97 -85 -161q-65 -47 -148 -47zM1312 1668l-1031 -1771h-142l1031 1771h142zM839 -11q61 11 61 58v367h-138v68q66 11 117 42q34 20 50.5 42t16.5 50h76v-569q0 -41 45 -55q27 -8 60 -8v-87h-365v87l38 2q27 0 39 3zM1462 214
q-54 0 -88 -41q-26 -31 -26 -72t26 -71q17 -20 38 -30t50 -10q49 0 81 32q33 30 33 79q0 47 -33 80t-81 33zM1467 310q88 0 158 -62t70 -145q0 -85 -69.5 -147.5t-164.5 -62.5q-91 0 -161.5 60t-70.5 149v300q0 88 77 153q72 61 159 61q79 0 143 -34q54 -32 87 -88l-115 -25
q-23 26 -44 37.5t-68 11.5q-52 0 -87 -32q-40 -37 -40 -99v-129q18 27 57 39.5t69 12.5z" />
    <glyph glyph-name="thorn" unicode="&#xfe;" 
d="M1312 1668l-1031 -1771h-142l1031 1771h142zM839 -11q61 9 61 58v367h-138v67q69 12 117 42q67 41 67 93h76v-569q0 -41 45 -55q14 -4 27 -6t34 -2v-87h-366v87l38 2q27 0 39 3zM297 1151q8 -42 43 -72q39 -34 90 -34q56 0 96.5 40.5t40.5 96.5q0 54 -38 93
q-31 33 -78 42q-18 2 -26 2q-22 0 -48 -6q-34 -10 -65 -34l-85 41l62 347h355v-103h-280l-30 -193q46 22 96 22q64 0 122 -32q53 -29 89 -90q30 -53 30 -113q0 -94 -77 -158q-68 -56 -157 -56q-102 0 -173 70q-45 45 -58 110zM1462 214q-54 0 -88 -41q-26 -34 -26 -72
q0 -40 26 -72q17 -20 38 -30t50 -10q48 0 81 33q33 30 33 79q0 47 -33 80t-81 33zM1467 310q88 0 158 -61.5t70 -145.5q0 -85 -69.5 -147.5t-164.5 -62.5q-91 0 -161.5 59t-70.5 149v300q0 88 73.5 151.5t162.5 63.5q82 0 139.5 -33t90.5 -89l-115 -25q-23 26 -44 37.5
t-68 11.5q-51 0 -89 -34t-38 -97v-129q18 27 57 39.5t69 12.5z" />
    <glyph glyph-name="ydieresis" unicode="&#xff;" 
d="M746 1668l-172 -720h-112l144 604h-328v116h468zM839 -11q61 9 61 58v367h-138v67q69 12 117 42q67 41 67 93h76v-569q0 -41 45 -55q27 -8 60 -8v-87h-365v87l38 2q27 0 39 3zM1312 1668l-1031 -1771h-142l1030 1771h143zM1462 214q-54 0 -88 -41q-26 -31 -26 -72
q0 -40 26 -72q17 -20 38 -30t50 -10q48 0 81.5 32.5t33.5 79.5q0 46 -33.5 79.5t-81.5 33.5zM1467 310q88 0 158 -61.5t70 -145.5q0 -86 -69.5 -148t-164.5 -62q-91 0 -161.5 59t-70.5 150v299q0 46 19.5 83.5t57.5 69.5q70 62 159 62q82 0 139.5 -33t90.5 -89l-115 -25
q-23 26 -44 37.5t-68 11.5q-51 0 -89 -34t-38 -97v-129q18 27 57 39.5t69 12.5z" />
  </font>
</defs>
</svg>
